<svg width="96" height="19" viewBox="0 0 96 19" fill="none" xmlns="http://www.w3.org/2000/svg">
<g clip-path="url(#clip0_745_127)">
<path d="M13.1951 0.420354L11.8639 3.74956L13.1614 6.42301L14.5769 2.97611H17.6606V14.7628C17.6606 15.2168 17.4752 15.6372 17.1551 15.9566C16.8349 16.2761 16.3968 16.4611 15.9418 16.4611C15.5879 16.4611 14.9645 16.2593 14.7117 15.7717L12.8244 11.6354L12.8076 11.6522L9.70704 4.87611L9.72389 4.85929L8.40954 2.03451C7.66811 0.554867 6.16839 0 4.93829 0C3.80929 0 2.71399 0.453982 1.92201 1.24425C1.11317 2.03451 0.658203 3.12743 0.658203 4.25398L0.708755 18.5796H7.17943L8.84766 14.9814L7.55015 12.308L5.79768 16.0239H3.21951V4.25398C3.21951 3.8 3.40487 3.37965 3.72504 3.06018C4.0452 2.74071 4.48332 2.55575 4.93829 2.55575C5.15735 2.55575 5.93248 2.60619 6.21894 3.34602L7.66811 6.50708L8.13993 7.56637L11.2405 14.3425C11.7797 15.5027 12.3863 16.7805 12.6391 17.3354C13.1783 18.4451 14.5769 19.0168 15.9418 19.0168C16.4979 19.0168 17.054 18.8991 17.5763 18.6973C18.0987 18.4788 18.5705 18.1761 18.9581 17.7726C19.3625 17.3858 19.6658 16.915 19.8849 16.3938C20.1039 15.8726 20.205 15.3177 20.205 14.7628V0.420354H13.1951Z" fill="#FC5E02"/>
<path d="M24.5352 15.7045V3.6824C24.5352 3.64877 24.5352 3.63196 24.5352 3.59833C24.552 3.5647 24.552 3.54788 24.5857 3.53107C24.6026 3.51426 24.6363 3.49744 24.6531 3.48063C24.6868 3.46381 24.7037 3.46381 24.7374 3.48063H27.2818C27.3324 3.48063 27.3829 3.49744 27.4335 3.51426C27.484 3.54788 27.5177 3.58151 27.5346 3.61514L33.0279 12.1399H33.129V3.6824C33.129 3.64877 33.129 3.63196 33.129 3.59833C33.1459 3.5647 33.1459 3.54788 33.1796 3.53107C33.1964 3.51426 33.2301 3.49744 33.247 3.48063C33.2807 3.46381 33.2975 3.46381 33.3312 3.48063H35.4544C35.4881 3.48063 35.505 3.48063 35.5387 3.48063C35.5724 3.49744 35.5892 3.49744 35.6061 3.53107C35.6229 3.54788 35.6398 3.58151 35.6566 3.59833C35.6735 3.63196 35.6735 3.64877 35.6566 3.6824V15.755C35.6566 15.7886 35.6566 15.8054 35.6566 15.839C35.6398 15.8727 35.6398 15.8895 35.6061 15.9063C35.5892 15.9231 35.5555 15.9399 35.5387 15.9567C35.505 15.9735 35.4881 15.9735 35.4544 15.9567H32.91C32.8594 15.9399 32.8257 15.9231 32.792 15.8895C32.7583 15.8559 32.7415 15.8054 32.7246 15.7718L27.147 7.21337H27.0796V15.7213C27.0796 15.755 27.0796 15.7718 27.0796 15.8054C27.0628 15.839 27.0628 15.8559 27.0291 15.8727C26.9954 15.8895 26.9785 15.9063 26.9617 15.9231C26.928 15.9399 26.9111 15.9399 26.8774 15.9231H24.7542C24.7205 15.9231 24.7037 15.9231 24.67 15.9231C24.6363 15.9063 24.6194 15.9063 24.6026 15.8727C24.5857 15.839 24.5689 15.8222 24.552 15.8054C24.5352 15.7718 24.5352 15.7382 24.5352 15.7045Z" fill="#291E30"/>
<path d="M49.6271 13.031V8.22219H48.3633C48.3296 8.22219 48.3127 8.22219 48.279 8.22219C48.2453 8.20537 48.2285 8.20537 48.2116 8.18856C48.1948 8.17175 48.1779 8.13812 48.1611 8.1213C48.1442 8.08767 48.1442 8.07086 48.1611 8.03723V6.59121C48.1611 6.4567 48.2285 6.38944 48.3633 6.38944H49.6271V3.78325C49.6271 3.74962 49.6271 3.73281 49.6439 3.69918C49.6608 3.68236 49.6608 3.64874 49.6945 3.63192C49.7113 3.61511 49.7282 3.59829 49.7619 3.58148C49.7787 3.56467 49.8124 3.56467 49.8461 3.56467L52.0367 3.54785C52.0704 3.54785 52.0873 3.54785 52.121 3.54785C52.1547 3.56467 52.1715 3.56467 52.1884 3.59829C52.2052 3.61511 52.2221 3.64874 52.239 3.66555C52.2558 3.69918 52.2558 3.71599 52.239 3.74962V6.13723C52.239 6.23812 52.3232 6.30537 52.4075 6.30537H54.7666C54.8003 6.30537 54.8171 6.30537 54.8508 6.30537C54.8845 6.32219 54.9014 6.32219 54.9182 6.35582C54.9351 6.37263 54.9519 6.40626 54.9688 6.42307C54.9856 6.4567 54.9856 6.47352 54.9688 6.50714V8.0036C54.9688 8.03723 54.9688 8.05405 54.9519 8.08767C54.9351 8.1213 54.9182 8.13812 54.9014 8.15493C54.8845 8.17175 54.8508 8.18856 54.834 8.18856C54.8003 8.20537 54.7834 8.20537 54.7497 8.18856H52.2221V13.7877C52.2221 13.8886 52.3064 13.9558 52.3906 13.9558H54.7497C54.7834 13.9558 54.8003 13.9558 54.834 13.9558C54.8677 13.9726 54.8845 13.9726 54.9014 13.9894C54.9182 14.0063 54.9351 14.0231 54.9519 14.0567C54.9688 14.0903 54.9688 14.1071 54.9688 14.1408V15.6372C54.9688 15.6709 54.9688 15.6877 54.9688 15.7213C54.9519 15.7549 54.9519 15.7717 54.9182 15.7886C54.8845 15.8054 54.8677 15.8222 54.8508 15.839C54.8171 15.8558 54.8003 15.8558 54.7666 15.839H52.5254C52.1378 15.8894 51.7503 15.839 51.3796 15.7213C51.0088 15.6036 50.6718 15.385 50.4022 15.116C50.1158 14.847 49.9136 14.5107 49.7787 14.1576C49.6271 13.8045 49.5765 13.4178 49.6271 13.031Z" fill="#291E30"/>
<path d="M78.6263 15.7044V9.2141C78.5757 8.82738 78.6094 8.42384 78.7274 8.05393C78.8622 7.68402 79.0644 7.33092 79.3508 7.06189C79.6373 6.77605 79.9743 6.57428 80.3619 6.43977C80.7495 6.30526 81.1539 6.27163 81.5414 6.32207H84.4566C84.4903 6.32207 84.5072 6.32207 84.5409 6.32207C84.5746 6.33888 84.5914 6.33888 84.6083 6.37251C84.6251 6.38933 84.642 6.42295 84.6588 6.43977C84.6757 6.4734 84.6757 6.49021 84.6588 6.52384V8.20526C84.6588 8.23888 84.6588 8.2557 84.642 8.28933C84.6251 8.32295 84.6251 8.33977 84.5914 8.35658C84.5746 8.3734 84.5409 8.39021 84.524 8.40703C84.4903 8.42384 84.4735 8.42384 84.4398 8.42384H81.3561C81.255 8.42384 81.1876 8.50791 81.1876 8.59198V15.6876C81.1876 15.8221 81.1202 15.8893 81.0022 15.8893H78.8116C78.7779 15.8893 78.7611 15.8893 78.7274 15.8893C78.6937 15.8725 78.6768 15.8725 78.66 15.8389C78.6431 15.8221 78.6263 15.7884 78.6094 15.7716C78.6263 15.7548 78.6263 15.7212 78.6263 15.7044Z" fill="#291E30"/>
<path d="M66.8989 11.2486C66.8989 11.1814 66.8989 11.1141 66.8989 11.0469C66.8652 10.4247 66.9663 9.7858 67.1854 9.1973C67.4213 8.57518 67.792 8.02031 68.2638 7.54952C68.7357 7.07872 69.3086 6.72562 69.9321 6.49022C70.8083 6.13713 72.8809 6.1035 73.8751 6.49022C74.4986 6.72562 75.0884 7.07872 75.5602 7.54952C76.032 8.02031 76.4027 8.57518 76.6386 9.1973C76.8577 9.7858 76.9588 10.4079 76.9251 11.0469C76.9251 11.1141 76.9251 11.1814 76.9251 11.2486C76.942 11.8708 76.8409 12.4929 76.6218 13.0814C76.3859 13.7035 76.0152 14.2584 75.5265 14.7123C75.0547 15.1663 74.4818 15.5362 73.8583 15.7548C72.645 16.1752 71.0442 16.2088 69.9321 15.7548C69.3086 15.5194 68.7357 15.1663 68.2638 14.7123C67.792 14.2584 67.4213 13.6867 67.1854 13.0814C66.9832 12.4929 66.8652 11.8708 66.8989 11.2486ZM71.9036 14.1239C73.4707 14.1239 74.3469 13.0477 74.3469 11.1646C74.3469 9.28137 73.437 8.17164 71.9036 8.17164C70.3702 8.17164 69.4602 9.24775 69.4602 11.1646C69.4602 13.0814 70.3196 14.1239 71.9036 14.1239Z" fill="#291E30"/>
<path d="M56.1137 11.1477C56.08 10.492 56.1811 9.81942 56.4171 9.21411C56.653 8.59198 57.0237 8.03711 57.5123 7.56632C57.9842 7.09552 58.5571 6.74242 59.1974 6.50703C59.8209 6.27163 60.4949 6.17074 61.169 6.22119C63.646 6.20437 65.4153 7.44862 65.7187 9.58402C65.7187 9.61765 65.7187 9.63446 65.7018 9.66809C65.685 9.70172 65.685 9.71853 65.6513 9.73535C65.6344 9.75216 65.6007 9.76897 65.5838 9.78579C65.5501 9.8026 65.5333 9.8026 65.4996 9.8026L63.3933 9.90349C63.2584 9.90349 63.2079 9.83623 63.1742 9.70172C63.1405 9.46632 63.0731 9.24773 62.9551 9.04596C62.8372 8.84419 62.6855 8.67605 62.5002 8.52473C62.3148 8.39021 62.0957 8.27251 61.8767 8.22207C61.6408 8.15481 61.4049 8.15481 61.1858 8.17163C59.6524 8.17163 58.793 9.33181 58.793 11.1645C58.793 12.9973 59.6861 14.1238 61.1858 14.1238C61.6745 14.1911 62.1631 14.0734 62.5507 13.7876C62.9383 13.5017 63.191 13.1318 63.2584 12.661C63.2584 12.6274 63.2584 12.6106 63.2753 12.5769C63.2922 12.5433 63.309 12.5265 63.3259 12.5097C63.3427 12.4929 63.3764 12.4761 63.3933 12.4592C63.427 12.4424 63.4438 12.4424 63.4775 12.4424L65.6007 12.4929C65.7355 12.4929 65.8198 12.5601 65.8029 12.6778C65.4827 14.7964 63.6629 16.0407 61.1353 16.0238C60.4612 16.0743 59.8041 15.9734 59.1637 15.7548C58.5402 15.5194 57.9673 15.1663 57.4955 14.6955C57.0237 14.2247 56.653 13.6699 56.4171 13.0477C56.1811 12.4761 56.08 11.8035 56.1137 11.1477Z" fill="#291E30"/>
<path d="M37.4268 11.1477C37.3762 10.4919 37.4773 9.81934 37.7132 9.19722C37.9492 8.57509 38.3199 8.00341 38.8085 7.54943C39.2972 7.09545 39.8701 6.72553 40.4936 6.49014C41.1339 6.25474 41.808 6.17067 42.482 6.22111C45.414 6.22111 47.1665 8.07067 47.1665 11.114V11.6353C47.1665 11.6857 47.1497 11.7362 47.0991 11.7866C47.0654 11.8202 46.998 11.8539 46.9474 11.8539H40.0892C40.0723 12.1733 40.1397 12.476 40.2577 12.7618C40.3757 13.0477 40.561 13.3167 40.7801 13.5353C41.016 13.7539 41.2856 13.922 41.5721 14.0229C41.8754 14.1238 42.1955 14.1742 42.4988 14.1574C42.9201 14.2078 43.3582 14.1406 43.729 13.922C44.0997 13.7202 44.3524 13.468 44.5209 13.0813C44.5378 13.0308 44.5546 12.9804 44.6052 12.9468C44.6557 12.9131 44.7063 12.8963 44.7568 12.9131L46.8632 13.014C47.0148 13.014 47.0822 13.014 47.0654 13.1654C46.7284 14.9813 44.7063 16.0406 42.4314 16.0238C41.7743 16.0742 41.1002 15.9733 40.4768 15.7547C39.8533 15.5362 39.2804 15.1831 38.8085 14.7123C38.3367 14.2583 37.966 13.7034 37.7301 13.0813C37.4942 12.4592 37.3931 11.8034 37.4268 11.1477ZM44.6557 10.307C44.6726 10.0211 44.6389 9.73527 44.5378 9.46624C44.4367 9.19722 44.285 8.945 44.0828 8.74323C43.8806 8.54146 43.6278 8.37332 43.3582 8.27244C43.0886 8.17155 42.8022 8.12111 42.4988 8.12111C42.1955 8.08748 41.8754 8.13792 41.5889 8.23881C41.3024 8.33969 41.0328 8.49102 40.7969 8.69279C40.5779 8.89456 40.3925 9.14677 40.2746 9.43261C40.1566 9.71845 40.0892 10.0043 40.0892 10.3238H44.6557V10.307Z" fill="#291E30"/>
<path d="M85.6201 11.1477C85.5696 10.4919 85.6707 9.81934 85.9066 9.19722C86.1425 8.57509 86.5132 8.00341 87.0019 7.54943C87.4906 7.09545 88.0635 6.72553 88.687 6.49014C89.3273 6.25474 90.0013 6.17067 90.6754 6.22111C93.6074 6.22111 95.3599 8.07067 95.3599 11.114V11.6353C95.3599 11.6857 95.343 11.7362 95.2925 11.7866C95.2587 11.8202 95.1914 11.8539 95.1408 11.8539H88.2826C88.2657 12.1733 88.3331 12.476 88.4511 12.7618C88.569 13.0477 88.7544 13.3167 88.9734 13.5353C89.2093 13.7539 89.479 13.922 89.7654 14.0229C90.0687 14.1238 90.3889 14.1742 90.6922 14.1574C91.1135 14.2078 91.5516 14.1406 91.9223 13.922C92.293 13.7202 92.5458 13.468 92.7143 13.0813C92.7311 13.0308 92.748 12.9804 92.7985 12.9468C92.8491 12.9131 92.8997 12.8963 92.9502 12.9131L95.0565 13.014C95.2082 13.014 95.2756 13.014 95.2588 13.1654C94.9217 14.9813 92.8997 16.0406 90.6248 16.0238C89.9676 16.0742 89.2936 15.9733 88.6701 15.7547C88.0466 15.5362 87.4737 15.1831 87.0019 14.7123C86.5301 14.2583 86.1594 13.7034 85.9235 13.0813C85.6875 12.4592 85.5696 11.8034 85.6201 11.1477ZM92.8322 10.307C92.8491 10.0211 92.8154 9.73527 92.7143 9.46624C92.6132 9.19722 92.4615 8.945 92.2593 8.74323C92.0571 8.54146 91.8044 8.37332 91.5347 8.27244C91.2651 8.17155 90.9787 8.12111 90.6754 8.12111C90.372 8.08748 90.0519 8.13792 89.7654 8.23881C89.479 8.33969 89.2093 8.49102 88.9734 8.69279C88.7544 8.89456 88.569 9.14677 88.4511 9.43261C88.3331 9.71845 88.2657 10.0043 88.2657 10.3238H92.8322V10.307Z" fill="#291E30"/>
</g>
<defs>
<clipPath id="clip0_745_127">
<rect width="96" height="19" fill="white"/>
</clipPath>
</defs>
</svg>
