<svg width="152" height="38" viewBox="0 0 152 38" fill="none" xmlns="http://www.w3.org/2000/svg">
<path d="M53.8773 6.0421V19.9686H47.866V6.0421H41.7188V1.25485H59.9973V6.0421H53.8773Z" fill="#0A2296"/>
<path d="M61.6478 1.25485H77.832V5.74289H67.6591V8.32692H76.3631V12.6246H67.6591V15.4806H78.0224V19.9686H61.6478V1.25485Z" fill="#0A2296"/>
<path d="M92.729 19.9686L91.9402 17.3302H85.3849L84.5961 19.9686H78.4489L85.2761 1.25485H92.2666L99.0938 19.9686H92.729ZM86.6361 13.1414H90.689L88.7306 6.4773H88.6217L86.6361 13.1414Z" fill="#0A2296"/>
<path d="M116.348 19.9686V13.223C116.348 12.3888 116.375 11.5365 116.429 10.6661C116.502 9.77759 116.574 9.03412 116.647 8.43572C116.719 7.83731 116.765 7.45651 116.783 7.29331H116.674L113.219 19.9686H108.514L105.032 7.32051H104.923C104.942 7.48371 104.987 7.86451 105.059 8.46292C105.15 9.04319 105.232 9.77759 105.304 10.6661C105.377 11.5365 105.413 12.3888 105.413 13.223V19.9686H99.8914V1.25485H108.378L111.207 12.0534H111.315L114.117 1.25485H122.304V19.9686H116.348Z" fill="#0A2296"/>
<path d="M47.7444 23.9979V28.7852H45.678V23.9979H43.5649V22.3523H49.8482V23.9979H47.7444Z" fill="#0A2296"/>
<path d="M52.2802 23.7361C53.1841 23.7361 53.8728 23.948 54.3466 24.3719C54.8266 24.7958 55.0665 25.4441 55.0665 26.3167V26.6346H51.3639C51.3639 26.9899 51.4418 27.258 51.5977 27.4387C51.7597 27.6195 52.0122 27.7099 52.355 27.7099C52.6667 27.7099 52.8942 27.6444 53.0376 27.5135C53.1872 27.3826 53.262 27.2081 53.262 26.9899H55.0665C55.0665 27.5883 54.839 28.0559 54.384 28.3925C53.9289 28.7291 53.2651 28.8974 52.3924 28.8974C51.4761 28.8974 50.7655 28.6854 50.2606 28.2616C49.7557 27.8315 49.5032 27.1832 49.5032 26.3167C49.5032 25.469 49.7495 24.827 50.2419 24.3906C50.7343 23.9543 51.4138 23.7361 52.2802 23.7361ZM52.355 24.9236C51.7691 24.9236 51.4418 25.201 51.3733 25.7557H53.1872C53.1872 25.5002 53.1124 25.2976 52.9628 25.148C52.8194 24.9984 52.6168 24.9236 52.355 24.9236Z" fill="#0A2296"/>
<path d="M58.1426 23.7361C58.953 23.7361 59.6075 23.9106 60.1062 24.2597C60.6111 24.6026 60.8635 25.1293 60.8635 25.8399H59.059C59.059 25.2789 58.7535 24.9984 58.1426 24.9984C57.5318 24.9984 57.2263 25.3506 57.2263 26.0549V26.5879C57.2263 27.286 57.5442 27.6351 58.18 27.6351C58.8158 27.6351 59.1338 27.3484 59.1338 26.7749H60.8635C60.8635 27.4917 60.6111 28.0247 60.1062 28.3738C59.6075 28.7228 58.953 28.8974 58.1426 28.8974C57.2762 28.8974 56.5968 28.6792 56.1043 28.2429C55.6119 27.8065 55.3657 27.1645 55.3657 26.3167C55.3657 25.469 55.6119 24.827 56.1043 24.3906C56.5968 23.9543 57.2762 23.7361 58.1426 23.7361Z" fill="#0A2296"/>
<path d="M63.1579 24.3626C63.3574 24.1631 63.5912 24.0104 63.8592 23.9044C64.1272 23.7922 64.4077 23.7361 64.7007 23.7361C65.2742 23.7361 65.7043 23.8951 65.991 24.213C66.2778 24.5309 66.4211 24.989 66.4211 25.5874V28.7852H64.5605V25.8118C64.5605 25.5999 64.5044 25.4316 64.3922 25.3069C64.2862 25.176 64.1335 25.1106 63.934 25.1106C63.7034 25.1106 63.5164 25.1854 63.373 25.335C63.2296 25.4846 63.1579 25.6685 63.1579 25.8866V28.7852H61.2973V22.0063H63.1579V24.3626Z" fill="#0A2296"/>
<path d="M70.0303 22.3523H75.5936V23.8951H72.0966V24.7833H75.0886V26.2606H72.0966V27.2424H75.659V28.7852H70.0303V22.3523Z" fill="#0A2296"/>
<path d="M79.6765 23.7361C80.25 23.7361 80.6801 23.8951 80.9669 24.213C81.2536 24.5309 81.397 24.989 81.397 25.5874V28.7852H79.5363V25.8118C79.5363 25.5999 79.4802 25.4316 79.368 25.3069C79.262 25.176 79.1093 25.1106 78.9098 25.1106C78.6792 25.1106 78.4922 25.1854 78.3488 25.335C78.2055 25.4846 78.1338 25.6685 78.1338 25.8866V28.7852H76.2731V23.8483H77.7972L77.9187 24.5963C78.112 24.3345 78.3644 24.1257 78.6761 23.9699C78.994 23.814 79.3275 23.7361 79.6765 23.7361Z" fill="#0A2296"/>
<path d="M85.4268 23.8483V25.1106H84.3796V26.9899C84.3796 27.2143 84.417 27.3795 84.4918 27.4855C84.5666 27.5852 84.7037 27.6351 84.9032 27.6351H85.4268V28.7291C85.2772 28.7789 85.0839 28.8194 84.8471 28.8506C84.6102 28.8818 84.4045 28.8974 84.23 28.8974C83.6814 28.8974 83.2576 28.7976 82.9584 28.5982C82.6654 28.3987 82.5189 28.059 82.5189 27.579V25.1106H81.827V23.8483H82.5937L82.9958 22.3523H84.3796V23.8483H85.4268Z" fill="#0A2296"/>
<path d="M88.9175 23.7268C89.0609 23.7268 89.1886 23.7455 89.3008 23.7829C89.4131 23.814 89.4692 23.8327 89.4692 23.839V25.4004H88.8707C88.4843 25.4004 88.2038 25.5002 88.0292 25.6996C87.8609 25.8991 87.7768 26.1952 87.7768 26.5879V28.7852H85.9161V23.8483H87.4402L87.5617 24.5963C87.6739 24.3096 87.8516 24.0945 88.0947 23.9512C88.3378 23.8016 88.6121 23.7268 88.9175 23.7268Z" fill="#0A2296"/>
<path d="M92.3954 23.7361C93.2992 23.7361 93.988 23.948 94.4617 24.3719C94.9417 24.7958 95.1817 25.4441 95.1817 26.3167V26.6346H91.4791C91.4791 26.9899 91.557 27.258 91.7128 27.4387C91.8749 27.6195 92.1273 27.7099 92.4702 27.7099C92.7818 27.7099 93.0094 27.6444 93.1527 27.5135C93.3023 27.3826 93.3771 27.2081 93.3771 26.9899H95.1817C95.1817 27.5883 94.9542 28.0559 94.4991 28.3925C94.0441 28.7291 93.3802 28.8974 92.5076 28.8974C91.5913 28.8974 90.8806 28.6854 90.3757 28.2616C89.8708 27.8315 89.6184 27.1832 89.6184 26.3167C89.6184 25.469 89.8646 24.827 90.357 24.3906C90.8495 23.9543 91.5289 23.7361 92.3954 23.7361ZM92.4702 24.9236C91.8842 24.9236 91.557 25.201 91.4884 25.7557H93.3023C93.3023 25.5002 93.2275 25.2976 93.0779 25.148C92.9346 24.9984 92.732 24.9236 92.4702 24.9236Z" fill="#0A2296"/>
<path d="M98.959 23.7361C99.626 23.7361 100.14 23.9543 100.502 24.3906C100.863 24.827 101.044 25.4721 101.044 26.3261C101.044 27.1738 100.863 27.8159 100.502 28.2522C100.14 28.6823 99.626 28.8974 98.959 28.8974C98.3856 28.8974 97.9243 28.7104 97.5752 28.3364V30.6271H95.7146V23.8483H97.2293L97.3882 24.5496C97.7498 24.0073 98.2734 23.7361 98.959 23.7361ZM98.3793 25.1106C98.1051 25.1106 97.8994 25.2072 97.7622 25.4004C97.6251 25.5937 97.5565 25.8461 97.5565 26.1578V26.4663C97.5565 26.778 97.6251 27.0336 97.7622 27.233C97.8994 27.4263 98.1051 27.5229 98.3793 27.5229C98.9154 27.5229 99.1835 27.2019 99.1835 26.5598V26.0643C99.1835 25.4285 98.9154 25.1106 98.3793 25.1106Z" fill="#0A2296"/>
<path d="M104.569 23.7268C104.712 23.7268 104.84 23.7455 104.952 23.7829C105.065 23.814 105.121 23.8327 105.121 23.839V25.4004H104.522C104.136 25.4004 103.855 25.5002 103.681 25.6996C103.512 25.8991 103.428 26.1952 103.428 26.5879V28.7852H101.568V23.8483H103.092L103.213 24.5963C103.325 24.3096 103.503 24.0945 103.746 23.9512C103.989 23.8016 104.264 23.7268 104.569 23.7268Z" fill="#0A2296"/>
<path d="M108.047 23.7361C108.951 23.7361 109.64 23.948 110.113 24.3719C110.593 24.7958 110.833 25.4441 110.833 26.3167V26.6346H107.131C107.131 26.9899 107.209 27.258 107.364 27.4387C107.526 27.6195 107.779 27.7099 108.122 27.7099C108.433 27.7099 108.661 27.6444 108.804 27.5135C108.954 27.3826 109.029 27.2081 109.029 26.9899H110.833C110.833 27.5883 110.606 28.0559 110.151 28.3925C109.696 28.7291 109.032 28.8974 108.159 28.8974C107.243 28.8974 106.532 28.6854 106.027 28.2616C105.522 27.8315 105.27 27.1832 105.27 26.3167C105.27 25.469 105.516 24.827 106.009 24.3906C106.501 23.9543 107.18 23.7361 108.047 23.7361ZM108.122 24.9236C107.536 24.9236 107.209 25.201 107.14 25.7557H108.954C108.954 25.5002 108.879 25.2976 108.729 25.148C108.586 24.9984 108.383 24.9236 108.122 24.9236Z" fill="#0A2296"/>
<path d="M114.76 23.7361C115.334 23.7361 115.764 23.8951 116.05 24.213C116.337 24.5309 116.481 24.989 116.481 25.5874V28.7852H114.62V25.8118C114.62 25.5999 114.564 25.4316 114.452 25.3069C114.346 25.176 114.193 25.1106 113.993 25.1106C113.763 25.1106 113.576 25.1854 113.432 25.335C113.289 25.4846 113.217 25.6685 113.217 25.8866V28.7852H111.357V23.8483H112.881L113.002 24.5963C113.196 24.3345 113.448 24.1257 113.76 23.9699C114.078 23.814 114.411 23.7361 114.76 23.7361Z" fill="#0A2296"/>
<path d="M119.772 23.7361C120.676 23.7361 121.364 23.948 121.838 24.3719C122.318 24.7958 122.558 25.4441 122.558 26.3167V26.6346H118.855C118.855 26.9899 118.933 27.258 119.089 27.4387C119.251 27.6195 119.504 27.7099 119.847 27.7099C120.158 27.7099 120.386 27.6444 120.529 27.5135C120.679 27.3826 120.754 27.2081 120.754 26.9899H122.558C122.558 27.5883 122.331 28.0559 121.876 28.3925C121.42 28.7291 120.757 28.8974 119.884 28.8974C118.968 28.8974 118.257 28.6854 117.752 28.2616C117.247 27.8315 116.995 27.1832 116.995 26.3167C116.995 25.469 117.241 24.827 117.733 24.3906C118.226 23.9543 118.905 23.7361 119.772 23.7361ZM119.847 24.9236C119.261 24.9236 118.933 25.201 118.865 25.7557H120.679C120.679 25.5002 120.604 25.2976 120.454 25.148C120.311 24.9984 120.108 24.9236 119.847 24.9236Z" fill="#0A2296"/>
<path d="M126.663 28.7852L126.541 28.0372C126.348 28.3052 126.092 28.5171 125.774 28.673C125.463 28.8226 125.132 28.8974 124.783 28.8974C124.21 28.8974 123.78 28.7384 123.493 28.4205C123.206 28.1026 123.063 27.6444 123.063 27.046V23.8483H124.924V26.8216C124.924 27.0336 124.977 27.205 125.083 27.3359C125.195 27.4606 125.351 27.5229 125.55 27.5229C125.781 27.5229 125.968 27.4481 126.111 27.2985C126.254 27.1489 126.326 26.965 126.326 26.7468V23.8483H128.187V28.7852H126.663Z" fill="#0A2296"/>
<path d="M131.945 23.7268C132.089 23.7268 132.217 23.7455 132.329 23.7829C132.441 23.814 132.497 23.8327 132.497 23.839V25.4004H131.899C131.512 25.4004 131.232 25.5002 131.057 25.6996C130.889 25.8991 130.805 26.1952 130.805 26.5879V28.7852H128.944V23.8483H130.468L130.59 24.5963C130.702 24.3096 130.88 24.0945 131.123 23.9512C131.366 23.8016 131.64 23.7268 131.945 23.7268Z" fill="#0A2296"/>
<path d="M135.309 23.7361C135.97 23.7361 136.528 23.867 136.983 24.1288C137.444 24.3844 137.674 24.7833 137.674 25.3256H135.945C135.945 25.1449 135.864 25.0171 135.702 24.9423C135.589 24.8799 135.449 24.8488 135.281 24.8488C134.832 24.8488 134.608 24.9547 134.608 25.1667C134.608 25.2851 134.686 25.3693 134.841 25.4191C134.997 25.469 135.253 25.522 135.608 25.5781C136.044 25.6404 136.409 25.7152 136.702 25.8025C136.995 25.8835 137.251 26.0331 137.469 26.2513C137.687 26.4632 137.796 26.7624 137.796 27.1489C137.796 27.7785 137.559 28.2273 137.085 28.4953C136.618 28.7633 136.004 28.8974 135.243 28.8974C134.807 28.8974 134.396 28.8381 134.009 28.7197C133.623 28.595 133.308 28.4049 133.065 28.1494C132.822 27.8938 132.7 27.5696 132.7 27.1769H134.43V27.2143C134.436 27.4263 134.523 27.5759 134.692 27.6631C134.866 27.7442 135.05 27.7847 135.243 27.7847C135.761 27.7847 136.019 27.6631 136.019 27.42C136.019 27.2954 135.938 27.205 135.776 27.1489C135.614 27.0928 135.349 27.0336 134.982 26.9712C134.539 26.8964 134.174 26.8154 133.888 26.7281C133.607 26.6409 133.361 26.4944 133.149 26.2887C132.937 26.0768 132.831 25.7838 132.831 25.4098C132.831 24.8051 133.059 24.375 133.514 24.1195C133.975 23.8639 134.573 23.7361 135.309 23.7361Z" fill="#0A2296"/>
<path d="M48.3522 36.5843L48.081 35.6773H45.8276L45.5565 36.5843H43.4434L45.7902 30.1514H48.1932L50.5401 36.5843H48.3522ZM46.2577 34.2374H47.6509L46.9777 31.9467H46.9403L46.2577 34.2374Z" fill="#0A2296"/>
<path d="M53.1611 31.5353C53.8218 31.5353 54.3797 31.6662 54.8348 31.928C55.296 32.1835 55.5267 32.5825 55.5267 33.1248H53.7969C53.7969 32.944 53.7159 32.8162 53.5538 32.7414C53.4416 32.6791 53.3013 32.6479 53.133 32.6479C52.6842 32.6479 52.4598 32.7539 52.4598 32.9658C52.4598 33.0843 52.5378 33.1684 52.6936 33.2183C52.8494 33.2681 53.105 33.3211 53.4603 33.3772C53.8966 33.4396 54.2613 33.5144 54.5543 33.6016C54.8472 33.6827 55.1028 33.8323 55.321 34.0504C55.5391 34.2624 55.6482 34.5616 55.6482 34.948C55.6482 35.5776 55.4113 36.0264 54.9376 36.2945C54.4701 36.5625 53.8561 36.6965 53.0956 36.6965C52.6593 36.6965 52.2479 36.6373 51.8614 36.5189C51.475 36.3942 51.1602 36.2041 50.9171 35.9485C50.674 35.6929 50.5524 35.3688 50.5524 34.9761H52.2822V35.0135C52.2884 35.2254 52.3757 35.375 52.544 35.4623C52.7185 35.5433 52.9024 35.5838 53.0956 35.5838C53.613 35.5838 53.8717 35.4623 53.8717 35.2192C53.8717 35.0945 53.7907 35.0041 53.6286 34.948C53.4665 34.8919 53.2016 34.8327 52.8338 34.7704C52.3913 34.6956 52.0266 34.6146 51.7399 34.5273C51.4594 34.44 51.2132 34.2935 51.0012 34.0878C50.7893 33.8759 50.6833 33.5829 50.6833 33.2089C50.6833 32.6043 50.9108 32.1742 51.3659 31.9186C51.8271 31.663 52.4256 31.5353 53.1611 31.5353Z" fill="#0A2296"/>
<path d="M58.5031 31.5353C59.1638 31.5353 59.7217 31.6662 60.1767 31.928C60.638 32.1835 60.8686 32.5825 60.8686 33.1248H59.1389C59.1389 32.944 59.0578 32.8162 58.8958 32.7414C58.7836 32.6791 58.6433 32.6479 58.475 32.6479C58.0262 32.6479 57.8018 32.7539 57.8018 32.9658C57.8018 33.0843 57.8797 33.1684 58.0356 33.2183C58.1914 33.2681 58.447 33.3211 58.8023 33.3772C59.2386 33.4396 59.6033 33.5144 59.8962 33.6016C60.1892 33.6827 60.4448 33.8323 60.6629 34.0504C60.8811 34.2624 60.9902 34.5616 60.9902 34.948C60.9902 35.5776 60.7533 36.0264 60.2796 36.2945C59.8121 36.5625 59.1981 36.6965 58.4376 36.6965C58.0013 36.6965 57.5899 36.6373 57.2034 36.5189C56.8169 36.3942 56.5021 36.2041 56.259 35.9485C56.0159 35.6929 55.8944 35.3688 55.8944 34.9761H57.6241V35.0135C57.6304 35.2254 57.7177 35.375 57.886 35.4623C58.0605 35.5433 58.2444 35.5838 58.4376 35.5838C58.955 35.5838 59.2137 35.4623 59.2137 35.2192C59.2137 35.0945 59.1326 35.0041 58.9706 34.948C58.8085 34.8919 58.5436 34.8327 58.1758 34.7704C57.7332 34.6956 57.3686 34.6146 57.0818 34.5273C56.8013 34.44 56.5551 34.2935 56.3432 34.0878C56.1313 33.8759 56.0253 33.5829 56.0253 33.2089C56.0253 32.6043 56.2528 32.1742 56.7078 31.9186C57.1691 31.663 57.7675 31.5353 58.5031 31.5353Z" fill="#0A2296"/>
<path d="M64.0507 31.5353C64.9172 31.5353 65.5966 31.7565 66.089 32.1991C66.5877 32.6355 66.8371 33.2744 66.8371 34.1159C66.8371 34.9574 66.5877 35.5994 66.089 36.042C65.5966 36.4783 64.9172 36.6965 64.0507 36.6965C63.1843 36.6965 62.5048 36.4783 62.0124 36.042C61.52 35.6057 61.2738 34.9636 61.2738 34.1159C61.2738 33.2681 61.52 32.6261 62.0124 32.1898C62.5048 31.7534 63.1843 31.5353 64.0507 31.5353ZM64.0507 32.7975C63.4399 32.7975 63.1344 33.1497 63.1344 33.8541V34.387C63.1344 35.0852 63.4399 35.4342 64.0507 35.4342C64.6678 35.4342 64.9764 35.0852 64.9764 34.387V33.8541C64.9764 33.1497 64.6678 32.7975 64.0507 32.7975Z" fill="#0A2296"/>
<path d="M69.9132 31.5353C70.7235 31.5353 71.378 31.7098 71.8767 32.0589C72.3816 32.4017 72.634 32.9284 72.634 33.639H70.8295C70.8295 33.078 70.524 32.7975 69.9132 32.7975C69.3023 32.7975 68.9968 33.1497 68.9968 33.8541V34.387C68.9968 35.0852 69.3148 35.4342 69.9506 35.4342C70.5864 35.4342 70.9043 35.1475 70.9043 34.574H72.634C72.634 35.2909 72.3816 35.8238 71.8767 36.1729C71.378 36.522 70.7235 36.6965 69.9132 36.6965C69.0467 36.6965 68.3673 36.4783 67.8748 36.042C67.3824 35.6057 67.1362 34.9636 67.1362 34.1159C67.1362 33.2681 67.3824 32.6261 67.8748 32.1898C68.3673 31.7534 69.0467 31.5353 69.9132 31.5353Z" fill="#0A2296"/>
<path d="M73.2885 31.0678V29.8055H75.1491V31.0678H73.2885ZM73.2885 36.5843V31.6475H75.1491V36.5843H73.2885Z" fill="#0A2296"/>
<path d="M78.403 31.5353C79.1573 31.5353 79.7713 31.663 80.245 31.9186C80.7187 32.1679 80.9556 32.5762 80.9556 33.1435V35.0696C80.9556 35.1756 80.9805 35.2628 81.0304 35.3314C81.0803 35.4 81.1551 35.4342 81.2548 35.4342H81.5914V36.5095C81.5727 36.522 81.5228 36.5438 81.4418 36.575C81.367 36.5999 81.2579 36.6248 81.1146 36.6498C80.9712 36.6809 80.806 36.6965 80.619 36.6965C80.2575 36.6965 79.9583 36.6435 79.7214 36.5376C79.4908 36.4254 79.3318 36.2726 79.2445 36.0794C79.0077 36.2664 78.7428 36.416 78.4498 36.5282C78.1568 36.6404 77.814 36.6965 77.4213 36.6965C76.2619 36.6965 75.6822 36.2352 75.6822 35.3127C75.6822 34.8327 75.8099 34.4681 76.0655 34.2187C76.3273 33.9632 76.7013 33.7886 77.1875 33.6951C77.6737 33.6016 78.3095 33.5549 79.0949 33.5549V33.3118C79.0949 33.1185 79.0264 32.9721 78.8892 32.8723C78.7583 32.7726 78.5869 32.7227 78.375 32.7227C78.1817 32.7227 78.0134 32.757 77.8701 32.8256C77.7329 32.8941 77.6644 33.0032 77.6644 33.1528V33.1902H75.8318C75.8255 33.1591 75.8224 33.1154 75.8224 33.0593C75.8224 32.5918 76.0437 32.2209 76.4863 31.9467C76.9351 31.6724 77.574 31.5353 78.403 31.5353ZM79.0949 34.4338C78.5651 34.4338 78.1724 34.493 77.9168 34.6114C77.6675 34.7236 77.5428 34.8764 77.5428 35.0696C77.5428 35.3813 77.7548 35.5371 78.1786 35.5371C78.4217 35.5371 78.6337 35.4716 78.8144 35.3407C79.0014 35.2098 79.0949 35.0478 79.0949 34.8545V34.4338Z" fill="#0A2296"/>
<path d="M84.9611 31.6475V32.9097H83.9139V34.7891C83.9139 35.0135 83.9513 35.1787 84.0261 35.2846C84.1009 35.3844 84.238 35.4342 84.4375 35.4342H84.9611V36.5282C84.8115 36.5781 84.6183 36.6186 84.3814 36.6498C84.1445 36.6809 83.9388 36.6965 83.7643 36.6965C83.2157 36.6965 82.7919 36.5968 82.4927 36.3973C82.1997 36.1978 82.0532 35.8581 82.0532 35.3781V32.9097H81.3613V31.6475H82.128L82.5301 30.1514H83.9139V31.6475H84.9611Z" fill="#0A2296"/>
<path d="M85.5159 31.0678V29.8055H87.3766V31.0678H85.5159ZM85.5159 36.5843V31.6475H87.3766V36.5843H85.5159Z" fill="#0A2296"/>
<path d="M90.7427 31.5353C91.6091 31.5353 92.2885 31.7565 92.781 32.1991C93.2797 32.6355 93.529 33.2744 93.529 34.1159C93.529 34.9574 93.2797 35.5994 92.781 36.042C92.2885 36.4783 91.6091 36.6965 90.7427 36.6965C89.8762 36.6965 89.1968 36.4783 88.7043 36.042C88.2119 35.6057 87.9657 34.9636 87.9657 34.1159C87.9657 33.2681 88.2119 32.6261 88.7043 32.1898C89.1968 31.7534 89.8762 31.5353 90.7427 31.5353ZM90.7427 32.7975C90.1318 32.7975 89.8264 33.1497 89.8264 33.8541V34.387C89.8264 35.0852 90.1318 35.4342 90.7427 35.4342C91.3598 35.4342 91.6683 35.0852 91.6683 34.387V33.8541C91.6683 33.1497 91.3598 32.7975 90.7427 32.7975Z" fill="#0A2296"/>
<path d="M97.456 31.5353C98.0294 31.5353 98.4595 31.6942 98.7463 32.0121C99.033 32.33 99.1764 32.7882 99.1764 33.3866V36.5843H97.3157V33.611C97.3157 33.399 97.2596 33.2307 97.1474 33.1061C97.0414 32.9752 96.8887 32.9097 96.6892 32.9097C96.4586 32.9097 96.2716 32.9845 96.1282 33.1341C95.9849 33.2837 95.9132 33.4676 95.9132 33.6858V36.5843H94.0525V31.6475H95.5766L95.6981 32.3955C95.8914 32.1337 96.1438 31.9248 96.4555 31.769C96.7734 31.6132 97.1069 31.5353 97.456 31.5353Z" fill="#0A2296"/>
<path d="M105.207 31.5353C106.074 31.5353 106.753 31.7565 107.245 32.1991C107.744 32.6355 107.993 33.2744 107.993 34.1159C107.993 34.9574 107.744 35.5994 107.245 36.042C106.753 36.4783 106.074 36.6965 105.207 36.6965C104.341 36.6965 103.661 36.4783 103.169 36.042C102.676 35.6057 102.43 34.9636 102.43 34.1159C102.43 33.2681 102.676 32.6261 103.169 32.1898C103.661 31.7534 104.341 31.5353 105.207 31.5353ZM105.207 32.7975C104.596 32.7975 104.291 33.1497 104.291 33.8541V34.387C104.291 35.0852 104.596 35.4342 105.207 35.4342C105.824 35.4342 106.133 35.0852 106.133 34.387V33.8541C106.133 33.1497 105.824 32.7975 105.207 32.7975Z" fill="#0A2296"/>
<path d="M110.527 29.6933C110.664 29.6933 110.836 29.712 111.042 29.7494C111.247 29.7806 111.412 29.818 111.537 29.8616V30.9556H111.107C110.908 30.9556 110.77 30.993 110.696 31.0678C110.621 31.1426 110.583 31.2703 110.583 31.4511V31.6475H111.537V32.9097H110.583V36.5843H108.723V32.9097H108.031V31.6475H108.723V31.4418C108.723 30.806 108.879 30.3572 109.19 30.0953C109.502 29.8273 109.948 29.6933 110.527 29.6933Z" fill="#0A2296"/>
<path d="M120.712 36.5843V34.2655C120.712 33.9788 120.722 33.6858 120.74 33.3866C120.765 33.0811 120.79 32.8256 120.815 32.6199C120.84 32.4142 120.856 32.2833 120.862 32.2272H120.825L119.637 36.5843H118.019L116.823 32.2365H116.785C116.792 32.2926 116.807 32.4235 116.832 32.6292C116.863 32.8287 116.891 33.0811 116.916 33.3866C116.941 33.6858 116.954 33.9788 116.954 34.2655V36.5843H115.056V30.1514H117.973L118.945 33.8634H118.983L119.946 30.1514H122.76V36.5843H120.712Z" fill="#0A2296"/>
<path d="M127.092 36.5843L126.971 35.8363C126.777 36.1043 126.522 36.3163 126.204 36.4721C125.892 36.6217 125.562 36.6965 125.213 36.6965C124.639 36.6965 124.209 36.5376 123.923 36.2197C123.636 35.9018 123.492 35.4436 123.492 34.8452V31.6475H125.353V34.6208C125.353 34.8327 125.406 35.0041 125.512 35.135C125.624 35.2597 125.78 35.322 125.98 35.322C126.21 35.322 126.397 35.2472 126.541 35.0976C126.684 34.948 126.756 34.7642 126.756 34.546V31.6475H128.616V36.5843H127.092Z" fill="#0A2296"/>
<path d="M135.928 31.5353C136.489 31.5353 136.91 31.6973 137.19 32.0215C137.471 32.3394 137.611 32.7944 137.611 33.3866V36.5843H135.75V33.611C135.75 33.399 135.697 33.2307 135.591 33.1061C135.492 32.9752 135.348 32.9097 135.161 32.9097C134.943 32.9097 134.765 32.9845 134.628 33.1341C134.491 33.2837 134.423 33.4676 134.423 33.6858V36.5843H132.562V33.611C132.562 33.399 132.509 33.2307 132.403 33.1061C132.303 32.9752 132.16 32.9097 131.973 32.9097C131.755 32.9097 131.577 32.9845 131.44 33.1341C131.303 33.2837 131.234 33.4676 131.234 33.6858V36.5843H129.374V31.6475H130.898L131.019 32.3861C131.206 32.1243 131.452 31.9186 131.758 31.769C132.07 31.6132 132.397 31.5353 132.74 31.5353C133.481 31.5353 133.98 31.8189 134.236 32.3861C134.429 32.1243 134.675 31.9186 134.974 31.769C135.28 31.6132 135.598 31.5353 135.928 31.5353Z" fill="#0A2296"/>
<path d="M140.22 32.1056C140.575 31.7254 141.036 31.5353 141.603 31.5353C142.27 31.5353 142.785 31.7534 143.146 32.1898C143.508 32.6199 143.689 33.2588 143.689 34.1065C143.689 34.9605 143.508 35.6057 143.146 36.042C142.785 36.4783 142.27 36.6965 141.603 36.6965C140.918 36.6965 140.394 36.4254 140.033 35.8831L139.874 36.5843H138.359V29.8055H140.22V32.1056ZM141.024 32.9097C140.749 32.9097 140.544 33.0095 140.407 33.2089C140.27 33.4022 140.201 33.6546 140.201 33.9663V34.2748C140.201 34.5865 140.27 34.839 140.407 35.0322C140.544 35.2254 140.749 35.322 141.024 35.322C141.56 35.322 141.828 35.0041 141.828 34.3683V33.8728C141.828 33.2307 141.56 32.9097 141.024 32.9097Z" fill="#0A2296"/>
<path d="M146.652 31.5353C147.407 31.5353 148.021 31.663 148.494 31.9186C148.968 32.1679 149.205 32.5762 149.205 33.1435V35.0696C149.205 35.1756 149.23 35.2628 149.28 35.3314C149.33 35.4 149.404 35.4342 149.504 35.4342H149.841V36.5095C149.822 36.522 149.772 36.5438 149.691 36.575C149.616 36.5999 149.507 36.6248 149.364 36.6498C149.221 36.6809 149.055 36.6965 148.868 36.6965C148.507 36.6965 148.208 36.6435 147.971 36.5376C147.74 36.4254 147.581 36.2726 147.494 36.0794C147.257 36.2664 146.992 36.416 146.699 36.5282C146.406 36.6404 146.063 36.6965 145.671 36.6965C144.511 36.6965 143.932 36.2352 143.932 35.3127C143.932 34.8327 144.059 34.4681 144.315 34.2187C144.577 33.9632 144.951 33.7886 145.437 33.6951C145.923 33.6016 146.559 33.5549 147.344 33.5549V33.3118C147.344 33.1185 147.276 32.9721 147.139 32.8723C147.008 32.7726 146.836 32.7227 146.624 32.7227C146.431 32.7227 146.263 32.757 146.119 32.8256C145.982 32.8941 145.914 33.0032 145.914 33.1528V33.1902H144.081C144.075 33.1591 144.072 33.1154 144.072 33.0593C144.072 32.5918 144.293 32.2209 144.736 31.9467C145.184 31.6724 145.823 31.5353 146.652 31.5353ZM147.344 34.4338C146.815 34.4338 146.422 34.493 146.166 34.6114C145.917 34.7236 145.792 34.8764 145.792 35.0696C145.792 35.3813 146.004 35.5371 146.428 35.5371C146.671 35.5371 146.883 35.4716 147.064 35.3407C147.251 35.2098 147.344 35.0478 147.344 34.8545V34.4338Z" fill="#0A2296"/>
<path d="M150.14 31.0678V29.8055H152.001V31.0678H150.14ZM150.14 36.5843V31.6475H152.001V36.5843H150.14Z" fill="#0A2296"/>
<circle cx="18.7002" cy="18.7002" r="18.7002" fill="#EDBF4F"/>
<circle cx="18.7002" cy="18.7002" r="18.7002" fill="#0A2296"/>
<path d="M25.3248 29.5196C24.0577 29.5196 23.0305 28.4925 23.0305 27.2253V23.8215C23.0305 23.1169 23.0535 22.3969 23.0996 21.6617C23.1609 20.9111 23.2223 20.2831 23.2837 19.7776C23.3377 19.3324 23.3739 19.0298 23.3922 18.8698C23.3957 18.8392 23.3718 18.8126 23.3411 18.8126C23.3202 18.8126 23.3015 18.8251 23.2934 18.8443L20.9726 24.4114C20.6163 25.2662 19.781 25.8229 18.8549 25.8229H17.9258C17.003 25.8229 16.1701 25.2701 15.8117 24.4198L13.4709 18.8672C13.4629 18.848 13.4441 18.8356 13.4233 18.8356C13.3925 18.8356 13.3686 18.8623 13.3721 18.8929C13.3904 19.0529 13.4266 19.3555 13.4806 19.8006C13.5573 20.2907 13.6264 20.9111 13.6877 21.6617C13.7491 22.3969 13.7798 23.1169 13.7798 23.8215V27.2253C13.7798 28.4925 12.7526 29.5196 11.4855 29.5196H11.4027C10.1356 29.5196 9.10838 28.4925 9.10838 27.2253V16.0061C9.10838 14.739 10.1356 13.7118 11.4027 13.7118H14.5181C15.5609 13.7118 16.4726 14.4151 16.7373 15.4239L18.6696 22.789C18.6765 22.8152 18.7002 22.8335 18.7273 22.8335C18.7544 22.8335 18.7781 22.8151 18.7849 22.7889L20.6973 15.4291C20.9601 14.4178 21.873 13.7118 22.9179 13.7118H25.7758C27.0429 13.7118 28.0701 14.739 28.0701 16.0061V27.2253C28.0701 28.4925 27.0429 29.5196 25.7758 29.5196H25.3248Z" fill="white"/>
<circle cx="23.9915" cy="7.77455" r="3.55208" fill="white"/>
<circle cx="12.3737" cy="8.83749" r="2.48501" fill="white"/>
</svg>
