<svg width="15" height="13" viewBox="0 0 15 13" fill="none" xmlns="http://www.w3.org/2000/svg">
<path d="M7.18182 12.1818L1.34091 6.34091C0.875 5.875 0.564394 5.33333 0.409091 4.71591C0.257576 4.09848 0.25947 3.48485 0.414773 2.875C0.570076 2.26136 0.878788 1.72727 1.34091 1.27273C1.81439 0.806818 2.35417 0.498106 2.96023 0.346591C3.57008 0.191288 4.17803 0.191288 4.78409 0.346591C5.39394 0.501894 5.93561 0.810606 6.40909 1.27273L7.18182 2.02273L7.95455 1.27273C8.43182 0.810606 8.97349 0.501894 9.57955 0.346591C10.1856 0.191288 10.7917 0.191288 11.3977 0.346591C12.0076 0.498106 12.5492 0.806818 13.0227 1.27273C13.4848 1.72727 13.7936 2.26136 13.9489 2.875C14.1042 3.48485 14.1042 4.09848 13.9489 4.71591C13.7973 5.33333 13.4886 5.875 13.0227 6.34091L7.18182 12.1818Z" fill="#D60C0C"/>
</svg>
