<svg width="131" height="32" viewBox="0 0 131 32" fill="none" xmlns="http://www.w3.org/2000/svg">
<path d="M46.0972 5.16967V17.0853H40.954V5.16967H35.6943V1.07367H51.3336V5.16967H46.0972Z" fill="#0A2296"/>
<path d="M52.7458 1.07367H66.5931V4.91367H57.8891V7.12458H65.3363V10.8017H57.8891V13.2453H66.756V17.0853H52.7458V1.07367Z" fill="#0A2296"/>
<path d="M79.3391 17.0853L78.6642 14.8279H73.0554L72.3805 17.0853H67.1209L72.9623 1.07367H78.9434L84.7849 17.0853H79.3391ZM74.126 11.2439H77.5936L75.918 5.54203H75.8249L74.126 11.2439Z" fill="#0A2296"/>
<path d="M99.5472 17.0853V11.3137C99.5472 10.6 99.5705 9.87076 99.6171 9.12603C99.6791 8.36579 99.7412 7.72967 99.8032 7.21767C99.8653 6.70567 99.9041 6.37985 99.9196 6.24022H99.8265L96.8709 17.0853H92.8447L89.8658 6.26349H89.7727C89.7882 6.40312 89.827 6.72894 89.8891 7.24094C89.9666 7.73743 90.0365 8.36579 90.0985 9.12603C90.1606 9.87076 90.1916 10.6 90.1916 11.3137V17.0853H85.4672V1.07367H92.7283L95.1487 10.3129H95.2418L97.6389 1.07367H104.644V17.0853H99.5472Z" fill="#0A2296"/>
<path d="M40.8509 20.5328V24.6288H39.0829V20.5328H37.2749V19.1248H42.6509V20.5328H40.8509Z" fill="#0A2296"/>
<path d="M44.7318 20.3088C45.5051 20.3088 46.0944 20.4901 46.4998 20.8528C46.9104 21.2155 47.1158 21.7701 47.1158 22.5168V22.7888H43.9478C43.9478 23.0928 44.0144 23.3221 44.1478 23.4768C44.2864 23.6315 44.5024 23.7088 44.7958 23.7088C45.0624 23.7088 45.2571 23.6528 45.3798 23.5408C45.5078 23.4288 45.5718 23.2795 45.5718 23.0928H47.1158C47.1158 23.6048 46.9211 24.0048 46.5318 24.2928C46.1424 24.5808 45.5744 24.7248 44.8278 24.7248C44.0438 24.7248 43.4358 24.5435 43.0038 24.1808C42.5718 23.8128 42.3558 23.2581 42.3558 22.5168C42.3558 21.7915 42.5664 21.2421 42.9878 20.8688C43.4091 20.4955 43.9904 20.3088 44.7318 20.3088ZM44.7958 21.3248C44.2944 21.3248 44.0144 21.5621 43.9558 22.0368H45.5078C45.5078 21.8181 45.4438 21.6448 45.3158 21.5168C45.1931 21.3888 45.0198 21.3248 44.7958 21.3248Z" fill="#0A2296"/>
<path d="M49.7477 20.3088C50.441 20.3088 51.001 20.4581 51.4277 20.7568C51.8597 21.0501 52.0757 21.5008 52.0757 22.1088H50.5317C50.5317 21.6288 50.2704 21.3888 49.7477 21.3888C49.225 21.3888 48.9637 21.6901 48.9637 22.2928V22.7488C48.9637 23.3461 49.2357 23.6448 49.7797 23.6448C50.3237 23.6448 50.5957 23.3995 50.5957 22.9088H52.0757C52.0757 23.5221 51.8597 23.9781 51.4277 24.2768C51.001 24.5755 50.441 24.7248 49.7477 24.7248C49.0064 24.7248 48.425 24.5381 48.0037 24.1648C47.5824 23.7915 47.3717 23.2421 47.3717 22.5168C47.3717 21.7915 47.5824 21.2421 48.0037 20.8688C48.425 20.4955 49.0064 20.3088 49.7477 20.3088Z" fill="#0A2296"/>
<path d="M54.0388 20.8448C54.2095 20.6741 54.4095 20.5435 54.6388 20.4528C54.8682 20.3568 55.1082 20.3088 55.3588 20.3088C55.8495 20.3088 56.2175 20.4448 56.4628 20.7168C56.7082 20.9888 56.8308 21.3808 56.8308 21.8928V24.6288H55.2388V22.0848C55.2388 21.9035 55.1908 21.7595 55.0948 21.6528C55.0042 21.5408 54.8735 21.4848 54.7028 21.4848C54.5055 21.4848 54.3455 21.5488 54.2228 21.6768C54.1002 21.8048 54.0388 21.9621 54.0388 22.1488V24.6288H52.4468V18.8288H54.0388V20.8448Z" fill="#0A2296"/>
<path d="M59.9188 19.1248H64.6788V20.4448H61.6868V21.2048H64.2468V22.4688H61.6868V23.3088H64.7348V24.6288H59.9188V19.1248Z" fill="#0A2296"/>
<path d="M68.1723 20.3088C68.6629 20.3088 69.0309 20.4448 69.2763 20.7168C69.5216 20.9888 69.6443 21.3808 69.6443 21.8928V24.6288H68.0523V22.0848C68.0523 21.9035 68.0043 21.7595 67.9083 21.6528C67.8176 21.5408 67.6869 21.4848 67.5163 21.4848C67.3189 21.4848 67.1589 21.5488 67.0363 21.6768C66.9136 21.8048 66.8523 21.9621 66.8523 22.1488V24.6288H65.2603V20.4048H66.5643L66.6683 21.0448C66.8336 20.8208 67.0496 20.6421 67.3163 20.5088C67.5883 20.3755 67.8736 20.3088 68.1723 20.3088Z" fill="#0A2296"/>
<path d="M73.0922 20.4048V21.4848H72.1962V23.0928C72.1962 23.2848 72.2282 23.4261 72.2922 23.5168C72.3562 23.6021 72.4735 23.6448 72.6442 23.6448H73.0922V24.5808C72.9642 24.6235 72.7989 24.6581 72.5962 24.6848C72.3935 24.7115 72.2175 24.7248 72.0682 24.7248C71.5989 24.7248 71.2362 24.6395 70.9802 24.4688C70.7295 24.2981 70.6042 24.0075 70.6042 23.5968V21.4848H70.0122V20.4048H70.6682L71.0122 19.1248H72.1962V20.4048H73.0922Z" fill="#0A2296"/>
<path d="M76.0789 20.3008C76.2016 20.3008 76.3109 20.3168 76.4069 20.3488C76.5029 20.3755 76.5509 20.3915 76.5509 20.3968V21.7328H76.0389C75.7082 21.7328 75.4682 21.8181 75.3189 21.9888C75.1749 22.1595 75.1029 22.4128 75.1029 22.7488V24.6288H73.5109V20.4048H74.8149L74.9189 21.0448C75.0149 20.7995 75.1669 20.6155 75.3749 20.4928C75.5829 20.3648 75.8176 20.3008 76.0789 20.3008Z" fill="#0A2296"/>
<path d="M79.0546 20.3088C79.8279 20.3088 80.4173 20.4901 80.8226 20.8528C81.2333 21.2155 81.4386 21.7701 81.4386 22.5168V22.7888H78.2706C78.2706 23.0928 78.3373 23.3221 78.4706 23.4768C78.6093 23.6315 78.8253 23.7088 79.1186 23.7088C79.3853 23.7088 79.5799 23.6528 79.7026 23.5408C79.8306 23.4288 79.8946 23.2795 79.8946 23.0928H81.4386C81.4386 23.6048 81.2439 24.0048 80.8546 24.2928C80.4653 24.5808 79.8973 24.7248 79.1506 24.7248C78.3666 24.7248 77.7586 24.5435 77.3266 24.1808C76.8946 23.8128 76.6786 23.2581 76.6786 22.5168C76.6786 21.7915 76.8893 21.2421 77.3106 20.8688C77.7319 20.4955 78.3133 20.3088 79.0546 20.3088ZM79.1186 21.3248C78.6173 21.3248 78.3373 21.5621 78.2786 22.0368H79.8306C79.8306 21.8181 79.7666 21.6448 79.6386 21.5168C79.5159 21.3888 79.3426 21.3248 79.1186 21.3248Z" fill="#0A2296"/>
<path d="M84.6705 20.3088C85.2412 20.3088 85.6812 20.4955 85.9905 20.8688C86.2999 21.2421 86.4545 21.7941 86.4545 22.5248C86.4545 23.2501 86.2999 23.7995 85.9905 24.1728C85.6812 24.5408 85.2412 24.7248 84.6705 24.7248C84.1799 24.7248 83.7852 24.5648 83.4865 24.2448V26.2048H81.8945V20.4048H83.1905L83.3265 21.0048C83.6359 20.5408 84.0839 20.3088 84.6705 20.3088ZM84.1745 21.4848C83.9399 21.4848 83.7639 21.5675 83.6465 21.7328C83.5292 21.8981 83.4705 22.1141 83.4705 22.3808V22.6448C83.4705 22.9115 83.5292 23.1301 83.6465 23.3008C83.7639 23.4661 83.9399 23.5488 84.1745 23.5488C84.6332 23.5488 84.8625 23.2741 84.8625 22.7248V22.3008C84.8625 21.7568 84.6332 21.4848 84.1745 21.4848Z" fill="#0A2296"/>
<path d="M89.4705 20.3008C89.5931 20.3008 89.7025 20.3168 89.7985 20.3488C89.8945 20.3755 89.9425 20.3915 89.9425 20.3968V21.7328H89.4305C89.0998 21.7328 88.8598 21.8181 88.7105 21.9888C88.5665 22.1595 88.4945 22.4128 88.4945 22.7488V24.6288H86.9025V20.4048H88.2065L88.3105 21.0448C88.4065 20.7995 88.5585 20.6155 88.7665 20.4928C88.9745 20.3648 89.2091 20.3008 89.4705 20.3008Z" fill="#0A2296"/>
<path d="M92.4461 20.3088C93.2195 20.3088 93.8088 20.4901 94.2141 20.8528C94.6248 21.2155 94.8301 21.7701 94.8301 22.5168V22.7888H91.6621C91.6621 23.0928 91.7288 23.3221 91.8621 23.4768C92.0008 23.6315 92.2168 23.7088 92.5101 23.7088C92.7768 23.7088 92.9715 23.6528 93.0941 23.5408C93.2221 23.4288 93.2861 23.2795 93.2861 23.0928H94.8301C94.8301 23.6048 94.6355 24.0048 94.2461 24.2928C93.8568 24.5808 93.2888 24.7248 92.5421 24.7248C91.7581 24.7248 91.1501 24.5435 90.7181 24.1808C90.2861 23.8128 90.0701 23.2581 90.0701 22.5168C90.0701 21.7915 90.2808 21.2421 90.7021 20.8688C91.1235 20.4955 91.7048 20.3088 92.4461 20.3088ZM92.5101 21.3248C92.0088 21.3248 91.7288 21.5621 91.6701 22.0368H93.2221C93.2221 21.8181 93.1581 21.6448 93.0301 21.5168C92.9075 21.3888 92.7341 21.3248 92.5101 21.3248Z" fill="#0A2296"/>
<path d="M98.1901 20.3088C98.6807 20.3088 99.0487 20.4448 99.2941 20.7168C99.5394 20.9888 99.6621 21.3808 99.6621 21.8928V24.6288H98.0701V22.0848C98.0701 21.9035 98.0221 21.7595 97.9261 21.6528C97.8354 21.5408 97.7048 21.4848 97.5341 21.4848C97.3368 21.4848 97.1768 21.5488 97.0541 21.6768C96.9314 21.8048 96.8701 21.9621 96.8701 22.1488V24.6288H95.2781V20.4048H96.5821L96.6861 21.0448C96.8514 20.8208 97.0674 20.6421 97.3341 20.5088C97.6061 20.3755 97.8914 20.3088 98.1901 20.3088Z" fill="#0A2296"/>
<path d="M102.478 20.3088C103.251 20.3088 103.841 20.4901 104.246 20.8528C104.657 21.2155 104.862 21.7701 104.862 22.5168V22.7888H101.694C101.694 23.0928 101.761 23.3221 101.894 23.4768C102.033 23.6315 102.249 23.7088 102.542 23.7088C102.809 23.7088 103.003 23.6528 103.126 23.5408C103.254 23.4288 103.318 23.2795 103.318 23.0928H104.862C104.862 23.6048 104.667 24.0048 104.278 24.2928C103.889 24.5808 103.321 24.7248 102.574 24.7248C101.79 24.7248 101.182 24.5435 100.75 24.1808C100.318 23.8128 100.102 23.2581 100.102 22.5168C100.102 21.7915 100.313 21.2421 100.734 20.8688C101.155 20.4955 101.737 20.3088 102.478 20.3088ZM102.542 21.3248C102.041 21.3248 101.761 21.5621 101.702 22.0368H103.254C103.254 21.8181 103.19 21.6448 103.062 21.5168C102.939 21.3888 102.766 21.3248 102.542 21.3248Z" fill="#0A2296"/>
<path d="M108.374 24.6288L108.27 23.9888C108.105 24.2181 107.886 24.3995 107.614 24.5328C107.347 24.6608 107.065 24.7248 106.766 24.7248C106.275 24.7248 105.907 24.5888 105.662 24.3168C105.417 24.0448 105.294 23.6528 105.294 23.1408V20.4048H106.886V22.9488C106.886 23.1301 106.931 23.2768 107.022 23.3888C107.118 23.4955 107.251 23.5488 107.422 23.5488C107.619 23.5488 107.779 23.4848 107.902 23.3568C108.025 23.2288 108.086 23.0715 108.086 22.8848V20.4048H109.678V24.6288H108.374Z" fill="#0A2296"/>
<path d="M112.894 20.3008C113.017 20.3008 113.126 20.3168 113.222 20.3488C113.318 20.3755 113.366 20.3915 113.366 20.3968V21.7328H112.854C112.523 21.7328 112.283 21.8181 112.134 21.9888C111.99 22.1595 111.918 22.4128 111.918 22.7488V24.6288H110.326V20.4048H111.63L111.734 21.0448C111.83 20.7995 111.982 20.6155 112.19 20.4928C112.398 20.3648 112.633 20.3008 112.894 20.3008Z" fill="#0A2296"/>
<path d="M115.772 20.3088C116.337 20.3088 116.814 20.4208 117.204 20.6448C117.598 20.8635 117.796 21.2048 117.796 21.6688H116.316C116.316 21.5141 116.246 21.4048 116.108 21.3408C116.012 21.2875 115.892 21.2608 115.748 21.2608C115.364 21.2608 115.172 21.3515 115.172 21.5328C115.172 21.6341 115.238 21.7061 115.372 21.7488C115.505 21.7915 115.724 21.8368 116.028 21.8848C116.401 21.9381 116.713 22.0021 116.964 22.0768C117.214 22.1461 117.433 22.2741 117.62 22.4608C117.806 22.6421 117.9 22.8981 117.9 23.2288C117.9 23.7675 117.697 24.1515 117.292 24.3808C116.892 24.6101 116.366 24.7248 115.716 24.7248C115.342 24.7248 114.99 24.6741 114.66 24.5728C114.329 24.4661 114.06 24.3035 113.852 24.0848C113.644 23.8661 113.54 23.5888 113.54 23.2528H115.02V23.2848C115.025 23.4661 115.1 23.5941 115.244 23.6688C115.393 23.7381 115.55 23.7728 115.716 23.7728C116.158 23.7728 116.38 23.6688 116.38 23.4608C116.38 23.3541 116.31 23.2768 116.172 23.2288C116.033 23.1808 115.806 23.1301 115.492 23.0768C115.113 23.0128 114.801 22.9435 114.556 22.8688C114.316 22.7941 114.105 22.6688 113.924 22.4928C113.742 22.3115 113.652 22.0608 113.652 21.7408C113.652 21.2235 113.846 20.8555 114.236 20.6368C114.63 20.4181 115.142 20.3088 115.772 20.3088Z" fill="#0A2296"/>
<path d="M41.3709 31.3018L41.1389 30.5258H39.2109L38.9789 31.3018H37.1709L39.1789 25.7978H41.2349L43.2429 31.3018H41.3709ZM39.5789 29.2938H40.7709L40.1949 27.3338H40.1629L39.5789 29.2938Z" fill="#0A2296"/>
<path d="M45.4855 26.9818C46.0508 26.9818 46.5281 27.0938 46.9175 27.3178C47.3121 27.5365 47.5095 27.8778 47.5095 28.3418H46.0295C46.0295 28.1871 45.9601 28.0778 45.8215 28.0138C45.7255 27.9605 45.6055 27.9338 45.4615 27.9338C45.0775 27.9338 44.8855 28.0245 44.8855 28.2058C44.8855 28.3071 44.9521 28.3791 45.0855 28.4218C45.2188 28.4645 45.4375 28.5098 45.7415 28.5578C46.1148 28.6111 46.4268 28.6751 46.6775 28.7498C46.9281 28.8191 47.1468 28.9471 47.3335 29.1338C47.5201 29.3151 47.6135 29.5711 47.6135 29.9018C47.6135 30.4405 47.4108 30.8245 47.0055 31.0538C46.6055 31.2831 46.0801 31.3978 45.4295 31.3978C45.0561 31.3978 44.7041 31.3471 44.3735 31.2458C44.0428 31.1391 43.7735 30.9765 43.5655 30.7578C43.3575 30.5391 43.2535 30.2618 43.2535 29.9258H44.7335V29.9578C44.7388 30.1391 44.8135 30.2671 44.9575 30.3418C45.1068 30.4111 45.2641 30.4458 45.4295 30.4458C45.8721 30.4458 46.0935 30.3418 46.0935 30.1338C46.0935 30.0271 46.0241 29.9498 45.8855 29.9018C45.7468 29.8538 45.5201 29.8031 45.2055 29.7498C44.8268 29.6858 44.5148 29.6165 44.2695 29.5418C44.0295 29.4671 43.8188 29.3418 43.6375 29.1658C43.4561 28.9845 43.3655 28.7338 43.3655 28.4138C43.3655 27.8965 43.5601 27.5285 43.9495 27.3098C44.3441 27.0911 44.8561 26.9818 45.4855 26.9818Z" fill="#0A2296"/>
<path d="M50.0561 26.9818C50.6214 26.9818 51.0988 27.0938 51.4881 27.3178C51.8828 27.5365 52.0801 27.8778 52.0801 28.3418H50.6001C50.6001 28.1871 50.5308 28.0778 50.3921 28.0138C50.2961 27.9605 50.1761 27.9338 50.0321 27.9338C49.6481 27.9338 49.4561 28.0245 49.4561 28.2058C49.4561 28.3071 49.5228 28.3791 49.6561 28.4218C49.7894 28.4645 50.0081 28.5098 50.3121 28.5578C50.6854 28.6111 50.9974 28.6751 51.2481 28.7498C51.4988 28.8191 51.7174 28.9471 51.9041 29.1338C52.0908 29.3151 52.1841 29.5711 52.1841 29.9018C52.1841 30.4405 51.9814 30.8245 51.5761 31.0538C51.1761 31.2831 50.6508 31.3978 50.0001 31.3978C49.6268 31.3978 49.2748 31.3471 48.9441 31.2458C48.6134 31.1391 48.3441 30.9765 48.1361 30.7578C47.9281 30.5391 47.8241 30.2618 47.8241 29.9258H49.3041V29.9578C49.3094 30.1391 49.3841 30.2671 49.5281 30.3418C49.6774 30.4111 49.8348 30.4458 50.0001 30.4458C50.4428 30.4458 50.6641 30.3418 50.6641 30.1338C50.6641 30.0271 50.5948 29.9498 50.4561 29.9018C50.3174 29.8538 50.0908 29.8031 49.7761 29.7498C49.3974 29.6858 49.0854 29.6165 48.8401 29.5418C48.6001 29.4671 48.3894 29.3418 48.2081 29.1658C48.0268 28.9845 47.9361 28.7338 47.9361 28.4138C47.9361 27.8965 48.1308 27.5285 48.5201 27.3098C48.9148 27.0911 49.4268 26.9818 50.0561 26.9818Z" fill="#0A2296"/>
<path d="M54.8027 26.9818C55.544 26.9818 56.1254 27.1711 56.5467 27.5498C56.9734 27.9231 57.1867 28.4698 57.1867 29.1898C57.1867 29.9098 56.9734 30.4591 56.5467 30.8378C56.1254 31.2111 55.544 31.3978 54.8027 31.3978C54.0614 31.3978 53.48 31.2111 53.0587 30.8378C52.6374 30.4645 52.4267 29.9151 52.4267 29.1898C52.4267 28.4645 52.6374 27.9151 53.0587 27.5418C53.48 27.1685 54.0614 26.9818 54.8027 26.9818ZM54.8027 28.0618C54.28 28.0618 54.0187 28.3631 54.0187 28.9658V29.4218C54.0187 30.0191 54.28 30.3178 54.8027 30.3178C55.3307 30.3178 55.5947 30.0191 55.5947 29.4218V28.9658C55.5947 28.3631 55.3307 28.0618 54.8027 28.0618Z" fill="#0A2296"/>
<path d="M59.8186 26.9818C60.512 26.9818 61.072 27.1311 61.4986 27.4298C61.9306 27.7231 62.1466 28.1738 62.1466 28.7818H60.6026C60.6026 28.3018 60.3413 28.0618 59.8186 28.0618C59.296 28.0618 59.0346 28.3631 59.0346 28.9658V29.4218C59.0346 30.0191 59.3066 30.3178 59.8506 30.3178C60.3946 30.3178 60.6666 30.0725 60.6666 29.5818H62.1466C62.1466 30.1951 61.9306 30.6511 61.4986 30.9498C61.072 31.2485 60.512 31.3978 59.8186 31.3978C59.0773 31.3978 58.496 31.2111 58.0746 30.8378C57.6533 30.4645 57.4426 29.9151 57.4426 29.1898C57.4426 28.4645 57.6533 27.9151 58.0746 27.5418C58.496 27.1685 59.0773 26.9818 59.8186 26.9818Z" fill="#0A2296"/>
<path d="M62.7066 26.5818V25.5018H64.2986V26.5818H62.7066ZM62.7066 31.3018V27.0778H64.2986V31.3018H62.7066Z" fill="#0A2296"/>
<path d="M67.0826 26.9818C67.728 26.9818 68.2533 27.0911 68.6586 27.3098C69.064 27.5231 69.2666 27.8725 69.2666 28.3578V30.0058C69.2666 30.0965 69.288 30.1711 69.3306 30.2298C69.3733 30.2885 69.4373 30.3178 69.5226 30.3178H69.8106V31.2378C69.7946 31.2485 69.752 31.2671 69.6826 31.2938C69.6186 31.3151 69.5253 31.3365 69.4026 31.3578C69.28 31.3845 69.1386 31.3978 68.9786 31.3978C68.6693 31.3978 68.4133 31.3525 68.2106 31.2618C68.0133 31.1658 67.8773 31.0351 67.8026 30.8698C67.6 31.0298 67.3733 31.1578 67.1226 31.2538C66.872 31.3498 66.5786 31.3978 66.2426 31.3978C65.2506 31.3978 64.7546 31.0031 64.7546 30.2138C64.7546 29.8031 64.864 29.4911 65.0826 29.2778C65.3066 29.0591 65.6266 28.9098 66.0426 28.8298C66.4586 28.7498 67.0026 28.7098 67.6746 28.7098V28.5018C67.6746 28.3365 67.616 28.2111 67.4986 28.1258C67.3866 28.0405 67.24 27.9978 67.0586 27.9978C66.8933 27.9978 66.7493 28.0271 66.6266 28.0858C66.5093 28.1445 66.4506 28.2378 66.4506 28.3658V28.3978H64.8826C64.8773 28.3711 64.8746 28.3338 64.8746 28.2858C64.8746 27.8858 65.064 27.5685 65.4426 27.3338C65.8266 27.0991 66.3733 26.9818 67.0826 26.9818ZM67.6746 29.4618C67.2213 29.4618 66.8853 29.5125 66.6666 29.6138C66.4533 29.7098 66.3466 29.8405 66.3466 30.0058C66.3466 30.2725 66.528 30.4058 66.8906 30.4058C67.0986 30.4058 67.28 30.3498 67.4346 30.2378C67.5946 30.1258 67.6746 29.9871 67.6746 29.8218V29.4618Z" fill="#0A2296"/>
<path d="M72.6938 27.0778V28.1578H71.7978V29.7658C71.7978 29.9578 71.8298 30.0991 71.8938 30.1898C71.9578 30.2751 72.0751 30.3178 72.2458 30.3178H72.6938V31.2538C72.5658 31.2965 72.4004 31.3311 72.1978 31.3578C71.9951 31.3845 71.8191 31.3978 71.6698 31.3978C71.2004 31.3978 70.8378 31.3125 70.5818 31.1418C70.3311 30.9711 70.2058 30.6805 70.2058 30.2698V28.1578H69.6138V27.0778H70.2698L70.6138 25.7978H71.7978V27.0778H72.6938Z" fill="#0A2296"/>
<path d="M73.1685 26.5818V25.5018H74.7605V26.5818H73.1685ZM73.1685 31.3018V27.0778H74.7605V31.3018H73.1685Z" fill="#0A2296"/>
<path d="M77.6405 26.9818C78.3819 26.9818 78.9632 27.1711 79.3845 27.5498C79.8112 27.9231 80.0245 28.4698 80.0245 29.1898C80.0245 29.9098 79.8112 30.4591 79.3845 30.8378C78.9632 31.2111 78.3819 31.3978 77.6405 31.3978C76.8992 31.3978 76.3179 31.2111 75.8965 30.8378C75.4752 30.4645 75.2645 29.9151 75.2645 29.1898C75.2645 28.4645 75.4752 27.9151 75.8965 27.5418C76.3179 27.1685 76.8992 26.9818 77.6405 26.9818ZM77.6405 28.0618C77.1179 28.0618 76.8565 28.3631 76.8565 28.9658V29.4218C76.8565 30.0191 77.1179 30.3178 77.6405 30.3178C78.1685 30.3178 78.4325 30.0191 78.4325 29.4218V28.9658C78.4325 28.3631 78.1685 28.0618 77.6405 28.0618Z" fill="#0A2296"/>
<path d="M83.3845 26.9818C83.8751 26.9818 84.2431 27.1178 84.4885 27.3898C84.7338 27.6618 84.8565 28.0538 84.8565 28.5658V31.3018H83.2645V28.7578C83.2645 28.5765 83.2165 28.4325 83.1205 28.3258C83.0298 28.2138 82.8991 28.1578 82.7285 28.1578C82.5311 28.1578 82.3711 28.2218 82.2485 28.3498C82.1258 28.4778 82.0645 28.6351 82.0645 28.8218V31.3018H80.4725V27.0778H81.7765L81.8805 27.7178C82.0458 27.4938 82.2618 27.3151 82.5285 27.1818C82.8005 27.0485 83.0858 26.9818 83.3845 26.9818Z" fill="#0A2296"/>
<path d="M90.0165 26.9818C90.7578 26.9818 91.3391 27.1711 91.7605 27.5498C92.1871 27.9231 92.4005 28.4698 92.4005 29.1898C92.4005 29.9098 92.1871 30.4591 91.7605 30.8378C91.3391 31.2111 90.7578 31.3978 90.0165 31.3978C89.2751 31.3978 88.6938 31.2111 88.2725 30.8378C87.8511 30.4645 87.6405 29.9151 87.6405 29.1898C87.6405 28.4645 87.8511 27.9151 88.2725 27.5418C88.6938 27.1685 89.2751 26.9818 90.0165 26.9818ZM90.0165 28.0618C89.4938 28.0618 89.2325 28.3631 89.2325 28.9658V29.4218C89.2325 30.0191 89.4938 30.3178 90.0165 30.3178C90.5445 30.3178 90.8085 30.0191 90.8085 29.4218V28.9658C90.8085 28.3631 90.5445 28.0618 90.0165 28.0618Z" fill="#0A2296"/>
<path d="M94.5684 25.4058C94.6857 25.4058 94.8324 25.4218 95.0084 25.4538C95.1844 25.4805 95.3257 25.5125 95.4324 25.5498V26.4858H95.0644C94.8937 26.4858 94.7764 26.5178 94.7124 26.5818C94.6484 26.6458 94.6164 26.7551 94.6164 26.9098V27.0778H95.4324V28.1578H94.6164V31.3018H93.0244V28.1578H92.4324V27.0778H93.0244V26.9018C93.0244 26.3578 93.1577 25.9738 93.4244 25.7498C93.6911 25.5205 94.0724 25.4058 94.5684 25.4058Z" fill="#0A2296"/>
<path d="M103.283 31.3018V29.3178C103.283 29.0725 103.291 28.8218 103.307 28.5658C103.328 28.3045 103.349 28.0858 103.371 27.9098C103.392 27.7338 103.405 27.6218 103.411 27.5738H103.379L102.363 31.3018H100.979L99.9548 27.5818H99.9228C99.9281 27.6298 99.9414 27.7418 99.9628 27.9178C99.9894 28.0885 100.013 28.3045 100.035 28.5658C100.056 28.8218 100.067 29.0725 100.067 29.3178V31.3018H98.4428V25.7978H100.939L101.771 28.9738H101.803L102.627 25.7978H105.035V31.3018H103.283Z" fill="#0A2296"/>
<path d="M108.741 31.3018L108.637 30.6618C108.472 30.8911 108.253 31.0725 107.981 31.2058C107.715 31.3338 107.432 31.3978 107.133 31.3978C106.643 31.3978 106.275 31.2618 106.029 30.9898C105.784 30.7178 105.661 30.3258 105.661 29.8138V27.0778H107.253V29.6218C107.253 29.8031 107.299 29.9498 107.389 30.0618C107.485 30.1685 107.619 30.2218 107.789 30.2218C107.987 30.2218 108.147 30.1578 108.269 30.0298C108.392 29.9018 108.453 29.7445 108.453 29.5578V27.0778H110.045V31.3018H108.741Z" fill="#0A2296"/>
<path d="M116.301 26.9818C116.781 26.9818 117.141 27.1205 117.381 27.3978C117.621 27.6698 117.741 28.0591 117.741 28.5658V31.3018H116.149V28.7578C116.149 28.5765 116.104 28.4325 116.013 28.3258C115.928 28.2138 115.805 28.1578 115.645 28.1578C115.459 28.1578 115.307 28.2218 115.189 28.3498C115.072 28.4778 115.013 28.6351 115.013 28.8218V31.3018H113.421V28.7578C113.421 28.5765 113.376 28.4325 113.285 28.3258C113.2 28.2138 113.077 28.1578 112.917 28.1578C112.731 28.1578 112.579 28.2218 112.461 28.3498C112.344 28.4778 112.285 28.6351 112.285 28.8218V31.3018H110.693V27.0778H111.997L112.101 27.7098C112.261 27.4858 112.472 27.3098 112.733 27.1818C113 27.0485 113.28 26.9818 113.573 26.9818C114.208 26.9818 114.635 27.2245 114.853 27.7098C115.019 27.4858 115.229 27.3098 115.485 27.1818C115.747 27.0485 116.019 26.9818 116.301 26.9818Z" fill="#0A2296"/>
<path d="M119.973 27.4698C120.277 27.1445 120.672 26.9818 121.157 26.9818C121.728 26.9818 122.168 27.1685 122.477 27.5418C122.787 27.9098 122.941 28.4565 122.941 29.1818C122.941 29.9125 122.787 30.4645 122.477 30.8378C122.168 31.2111 121.728 31.3978 121.157 31.3978C120.571 31.3978 120.123 31.1658 119.813 30.7018L119.677 31.3018H118.381V25.5018H119.973V27.4698ZM120.661 28.1578C120.427 28.1578 120.251 28.2431 120.133 28.4138C120.016 28.5791 119.957 28.7951 119.957 29.0618V29.3258C119.957 29.5925 120.016 29.8085 120.133 29.9738C120.251 30.1391 120.427 30.2218 120.661 30.2218C121.12 30.2218 121.349 29.9498 121.349 29.4058V28.9818C121.349 28.4325 121.12 28.1578 120.661 28.1578Z" fill="#0A2296"/>
<path d="M125.477 26.9818C126.123 26.9818 126.648 27.0911 127.053 27.3098C127.459 27.5231 127.661 27.8725 127.661 28.3578V30.0058C127.661 30.0965 127.683 30.1711 127.725 30.2298C127.768 30.2885 127.832 30.3178 127.917 30.3178H128.205V31.2378C128.189 31.2485 128.147 31.2671 128.077 31.2938C128.013 31.3151 127.92 31.3365 127.797 31.3578C127.675 31.3845 127.533 31.3978 127.373 31.3978C127.064 31.3978 126.808 31.3525 126.605 31.2618C126.408 31.1658 126.272 31.0351 126.197 30.8698C125.995 31.0298 125.768 31.1578 125.517 31.2538C125.267 31.3498 124.973 31.3978 124.637 31.3978C123.645 31.3978 123.149 31.0031 123.149 30.2138C123.149 29.8031 123.259 29.4911 123.477 29.2778C123.701 29.0591 124.021 28.9098 124.437 28.8298C124.853 28.7498 125.397 28.7098 126.069 28.7098V28.5018C126.069 28.3365 126.011 28.2111 125.893 28.1258C125.781 28.0405 125.635 27.9978 125.453 27.9978C125.288 27.9978 125.144 28.0271 125.021 28.0858C124.904 28.1445 124.845 28.2378 124.845 28.3658V28.3978H123.277C123.272 28.3711 123.269 28.3338 123.269 28.2858C123.269 27.8858 123.459 27.5685 123.837 27.3338C124.221 27.0991 124.768 26.9818 125.477 26.9818ZM126.069 29.4618C125.616 29.4618 125.28 29.5125 125.061 29.6138C124.848 29.7098 124.741 29.8405 124.741 30.0058C124.741 30.2725 124.923 30.4058 125.285 30.4058C125.493 30.4058 125.675 30.3498 125.829 30.2378C125.989 30.1258 126.069 29.9871 126.069 29.8218V29.4618Z" fill="#0A2296"/>
<path d="M128.461 26.5818V25.5018H130.053V26.5818H128.461ZM128.461 31.3018V27.0778H130.053V31.3018H128.461Z" fill="#0A2296"/>
<circle cx="16" cy="16" r="16" fill="#EDBF4F"/>
<circle cx="16" cy="16" r="16" fill="#0A2296"/>
<path d="M21.6687 25.2572C20.5846 25.2572 19.7057 24.3784 19.7057 23.2942V20.3818C19.7057 19.779 19.7254 19.163 19.7648 18.5339C19.8173 17.8917 19.8698 17.3544 19.9223 16.9219C19.9685 16.541 19.9995 16.2821 20.0152 16.1452C20.0182 16.119 19.9977 16.0962 19.9714 16.0962C19.9536 16.0962 19.9375 16.1069 19.9307 16.1234L17.9449 20.8866C17.64 21.618 16.9254 22.0943 16.1331 22.0943H15.3381C14.5486 22.0943 13.8359 21.6213 13.5292 20.8938L11.5265 16.1429C11.5196 16.1265 11.5035 16.1159 11.4857 16.1159C11.4594 16.1159 11.4389 16.1387 11.4419 16.1649C11.4576 16.3018 11.4885 16.5607 11.5348 16.9415C11.6004 17.3609 11.6594 17.8917 11.7119 18.5339C11.7645 19.163 11.7907 19.779 11.7907 20.3818V23.2942C11.7907 24.3784 10.9118 25.2572 9.82768 25.2572H9.75684C8.6727 25.2572 7.79382 24.3784 7.79382 23.2942V13.695C7.79382 12.6108 8.6727 11.7319 9.75684 11.7319H12.4224C13.3147 11.7319 14.0947 12.3337 14.3211 13.1968L15.9745 19.4985C15.9804 19.5209 16.0006 19.5365 16.0238 19.5365C16.047 19.5365 16.0673 19.5208 16.0732 19.4984L17.7094 13.2013C17.9342 12.336 18.7153 11.7319 19.6093 11.7319H22.0546C23.1387 11.7319 24.0176 12.6108 24.0176 13.695V23.2942C24.0176 24.3784 23.1387 25.2572 22.0546 25.2572H21.6687Z" fill="#A6AFC7"/>
<circle cx="20.5275" cy="6.65197" r="3.03918" fill="#A6AFC7"/>
<circle cx="10.5891" cy="7.56144" r="2.12619" fill="#A6AFC7"/>
</svg>
