<svg width="150" height="37" viewBox="0 0 150 37" fill="none" xmlns="http://www.w3.org/2000/svg">
<path d="M53.1674 5.96256V19.7057H47.2353V5.96256H41.1689V1.23834H59.2069V5.96256H53.1674Z" fill="white"/>
<path d="M60.8356 1.23834H76.8067V5.6673H66.7678V8.2173H75.3572V12.4584H66.7678V15.2768H76.9946V19.7057H60.8356V1.23834Z" fill="white"/>
<path d="M91.5076 19.7057L90.7292 17.102H84.2602L83.4818 19.7057H77.4155L84.1529 1.23834H91.0513L97.7887 19.7057H91.5076ZM85.495 12.9684H89.4945L87.5618 6.39203H87.4544L85.495 12.9684Z" fill="white"/>
<path d="M114.815 19.7057V13.0489C114.815 12.2257 114.842 11.3847 114.896 10.5257C114.967 9.64888 115.039 8.91519 115.11 8.32467C115.182 7.73414 115.227 7.35835 115.245 7.1973H115.137L111.728 19.7057H107.085L103.649 7.22414H103.541C103.559 7.38519 103.604 7.76098 103.676 8.35151C103.765 8.92414 103.846 9.64888 103.917 10.5257C103.989 11.3847 104.025 12.2257 104.025 13.0489V19.7057H98.5757V1.23834H106.95L109.742 11.8947H109.849L112.614 1.23834H120.694V19.7057H114.815Z" fill="white"/>
<path d="M47.1165 23.682V28.4062H45.0773V23.682H42.992V22.058H49.1926V23.682H47.1165Z" fill="white"/>
<path d="M51.5926 23.4236C52.4845 23.4236 53.1642 23.6328 53.6317 24.0511C54.1054 24.4694 54.3422 25.1091 54.3422 25.9703V26.284H50.6883C50.6883 26.6346 50.7652 26.8991 50.919 27.0775C51.0789 27.2559 51.3281 27.3451 51.6664 27.3451C51.974 27.3451 52.1985 27.2805 52.34 27.1513C52.4876 27.0222 52.5614 26.8499 52.5614 26.6346H54.3422C54.3422 27.2252 54.1177 27.6865 53.6687 28.0187C53.2196 28.3508 52.5645 28.5169 51.7033 28.5169C50.7991 28.5169 50.0978 28.3078 49.5996 27.8895C49.1013 27.4651 48.8522 26.8253 48.8522 25.9703C48.8522 25.1337 49.0951 24.5001 49.5811 24.0695C50.0671 23.6389 50.7375 23.4236 51.5926 23.4236ZM51.6664 24.5955C51.0882 24.5955 50.7652 24.8692 50.6976 25.4167H52.4876C52.4876 25.1645 52.4138 24.9645 52.2662 24.8169C52.1247 24.6693 51.9248 24.5955 51.6664 24.5955Z" fill="white"/>
<path d="M57.3778 23.4236C58.1775 23.4236 58.8234 23.5959 59.3155 23.9403C59.8138 24.2787 60.0629 24.7985 60.0629 25.4997H58.2821C58.2821 24.9461 57.9807 24.6693 57.3778 24.6693C56.775 24.6693 56.4736 25.0168 56.4736 25.7119V26.2379C56.4736 26.9268 56.7873 27.2713 57.4147 27.2713C58.0422 27.2713 58.3559 26.9883 58.3559 26.4224H60.0629C60.0629 27.1298 59.8138 27.6557 59.3155 28.0002C58.8234 28.3447 58.1775 28.5169 57.3778 28.5169C56.5228 28.5169 55.8523 28.3016 55.3663 27.871C54.8804 27.4405 54.6374 26.8069 54.6374 25.9703C54.6374 25.1337 54.8804 24.5001 55.3663 24.0695C55.8523 23.6389 56.5228 23.4236 57.3778 23.4236Z" fill="white"/>
<path d="M62.3271 24.0418C62.5239 23.845 62.7546 23.6943 63.0191 23.5897C63.2836 23.479 63.5604 23.4236 63.8496 23.4236C64.4155 23.4236 64.8399 23.5805 65.1229 23.8942C65.4058 24.2079 65.5473 24.6601 65.5473 25.2506V28.4062H63.7111V25.472C63.7111 25.2629 63.6558 25.0968 63.5451 24.9738C63.4405 24.8446 63.2898 24.78 63.0929 24.78C62.8653 24.78 62.6808 24.8538 62.5393 25.0015C62.3978 25.1491 62.3271 25.3305 62.3271 25.5458V28.4062H60.4909V21.7166H62.3271V24.0418Z" fill="white"/>
<path d="M69.1089 22.058H74.599V23.5805H71.1481V24.4571H74.1007V25.9149H71.1481V26.8838H74.6636V28.4062H69.1089V22.058Z" fill="white"/>
<path d="M78.6282 23.4236C79.1942 23.4236 79.6186 23.5805 79.9016 23.8942C80.1845 24.2079 80.326 24.6601 80.326 25.2506V28.4062H78.4898V25.472C78.4898 25.2629 78.4345 25.0968 78.3237 24.9738C78.2192 24.8446 78.0685 24.78 77.8716 24.78C77.644 24.78 77.4595 24.8538 77.318 25.0015C77.1765 25.1491 77.1058 25.3305 77.1058 25.5458V28.4062H75.2696V23.5344H76.7736L76.8936 24.2725C77.0843 24.0142 77.3334 23.8081 77.6409 23.6543C77.9547 23.5005 78.2838 23.4236 78.6282 23.4236Z" fill="white"/>
<path d="M84.3028 23.5344V24.78H83.2693V26.6346C83.2693 26.8561 83.3062 27.0191 83.3801 27.1237C83.4539 27.2221 83.5892 27.2713 83.7861 27.2713H84.3028V28.3508C84.1551 28.4001 83.9644 28.44 83.7307 28.4708C83.4969 28.5016 83.2939 28.5169 83.1217 28.5169C82.5804 28.5169 82.1621 28.4185 81.8668 28.2217C81.5777 28.0248 81.4332 27.6896 81.4332 27.2159V24.78H80.7504V23.5344H81.507L81.9037 22.058H83.2693V23.5344H84.3028Z" fill="white"/>
<path d="M87.7475 23.4144C87.889 23.4144 88.0151 23.4329 88.1258 23.4698C88.2366 23.5005 88.2919 23.519 88.2919 23.5251V25.066H87.7014C87.32 25.066 87.0432 25.1645 86.871 25.3613C86.7049 25.5581 86.6218 25.8503 86.6218 26.2379V28.4062H84.7857V23.5344H86.2897L86.4096 24.2725C86.5203 23.9896 86.6956 23.7773 86.9356 23.6359C87.1755 23.4882 87.4461 23.4144 87.7475 23.4144Z" fill="white"/>
<path d="M91.1796 23.4236C92.0715 23.4236 92.7513 23.6328 93.2188 24.0511C93.6924 24.4694 93.9292 25.1091 93.9292 25.9703V26.284H90.2754C90.2754 26.6346 90.3523 26.8991 90.506 27.0775C90.666 27.2559 90.9151 27.3451 91.2534 27.3451C91.561 27.3451 91.7855 27.2805 91.927 27.1513C92.0746 27.0222 92.1484 26.8499 92.1484 26.6346H93.9292C93.9292 27.2252 93.7047 27.6865 93.2557 28.0187C92.8066 28.3508 92.1515 28.5169 91.2903 28.5169C90.3861 28.5169 89.6848 28.3078 89.1866 27.8895C88.6883 27.4651 88.4392 26.8253 88.4392 25.9703C88.4392 25.1337 88.6822 24.5001 89.1681 24.0695C89.6541 23.6389 90.3246 23.4236 91.1796 23.4236ZM91.2534 24.5955C90.6752 24.5955 90.3523 24.8692 90.2846 25.4167H92.0746C92.0746 25.1645 92.0008 24.9645 91.8532 24.8169C91.7117 24.6693 91.5118 24.5955 91.2534 24.5955Z" fill="white"/>
<path d="M97.6569 23.4236C98.3151 23.4236 98.8226 23.6389 99.1793 24.0695C99.5361 24.5001 99.7145 25.1368 99.7145 25.9795C99.7145 26.8161 99.5361 27.4497 99.1793 27.8803C98.8226 28.3047 98.3151 28.5169 97.6569 28.5169C97.091 28.5169 96.6358 28.3324 96.2913 27.9633V30.2239H94.4551V23.5344H95.9499L96.1067 24.2264C96.4635 23.6912 96.9802 23.4236 97.6569 23.4236ZM97.0848 24.78C96.8141 24.78 96.6112 24.8753 96.4758 25.066C96.3405 25.2567 96.2728 25.5059 96.2728 25.8134V26.1179C96.2728 26.4255 96.3405 26.6777 96.4758 26.8745C96.6112 27.0652 96.8141 27.1606 97.0848 27.1606C97.6138 27.1606 97.8783 26.8438 97.8783 26.2102V25.7212C97.8783 25.0937 97.6138 24.78 97.0848 24.78Z" fill="white"/>
<path d="M103.193 23.4144C103.334 23.4144 103.461 23.4329 103.571 23.4698C103.682 23.5005 103.737 23.519 103.737 23.5251V25.066H103.147C102.765 25.066 102.489 25.1645 102.316 25.3613C102.15 25.5581 102.067 25.8503 102.067 26.2379V28.4062H100.231V23.5344H101.735L101.855 24.2725C101.966 23.9896 102.141 23.7773 102.381 23.6359C102.621 23.4882 102.892 23.4144 103.193 23.4144Z" fill="white"/>
<path d="M106.625 23.4236C107.517 23.4236 108.197 23.6328 108.664 24.0511C109.138 24.4694 109.375 25.1091 109.375 25.9703V26.284H105.721C105.721 26.6346 105.798 26.8991 105.952 27.0775C106.111 27.2559 106.361 27.3451 106.699 27.3451C107.006 27.3451 107.231 27.2805 107.372 27.1513C107.52 27.0222 107.594 26.8499 107.594 26.6346H109.375C109.375 27.2252 109.15 27.6865 108.701 28.0187C108.252 28.3508 107.597 28.5169 106.736 28.5169C105.832 28.5169 105.13 28.3078 104.632 27.8895C104.134 27.4651 103.885 26.8253 103.885 25.9703C103.885 25.1337 104.128 24.5001 104.614 24.0695C105.1 23.6389 105.77 23.4236 106.625 23.4236ZM106.699 24.5955C106.121 24.5955 105.798 24.8692 105.73 25.4167H107.52C107.52 25.1645 107.446 24.9645 107.299 24.8169C107.157 24.6693 106.957 24.5955 106.699 24.5955Z" fill="white"/>
<path d="M113.25 23.4236C113.816 23.4236 114.24 23.5805 114.523 23.8942C114.806 24.2079 114.948 24.6601 114.948 25.2506V28.4062H113.112V25.472C113.112 25.2629 113.056 25.0968 112.945 24.9738C112.841 24.8446 112.69 24.78 112.493 24.78C112.266 24.78 112.081 24.8538 111.94 25.0015C111.798 25.1491 111.728 25.3305 111.728 25.5458V28.4062H109.891V23.5344H111.395L111.515 24.2725C111.706 24.0142 111.955 23.8081 112.263 23.6543C112.576 23.5005 112.906 23.4236 113.25 23.4236Z" fill="white"/>
<path d="M118.196 23.4236C119.088 23.4236 119.767 23.6328 120.235 24.0511C120.708 24.4694 120.945 25.1091 120.945 25.9703V26.284H117.291C117.291 26.6346 117.368 26.8991 117.522 27.0775C117.682 27.2559 117.931 27.3451 118.269 27.3451C118.577 27.3451 118.801 27.2805 118.943 27.1513C119.091 27.0222 119.164 26.8499 119.164 26.6346H120.945C120.945 27.2252 120.721 27.6865 120.272 28.0187C119.823 28.3508 119.167 28.5169 118.306 28.5169C117.402 28.5169 116.701 28.3078 116.203 27.8895C115.704 27.4651 115.455 26.8253 115.455 25.9703C115.455 25.1337 115.698 24.5001 116.184 24.0695C116.67 23.6389 117.341 23.4236 118.196 23.4236ZM118.269 24.5955C117.691 24.5955 117.368 24.8692 117.301 25.4167H119.091C119.091 25.1645 119.017 24.9645 118.869 24.8169C118.728 24.6693 118.528 24.5955 118.269 24.5955Z" fill="white"/>
<path d="M124.996 28.4062L124.876 27.6681C124.685 27.9326 124.433 28.1417 124.119 28.2955C123.812 28.4431 123.486 28.5169 123.141 28.5169C122.575 28.5169 122.151 28.3601 121.868 28.0464C121.585 27.7326 121.443 27.2805 121.443 26.69V23.5344H123.28V26.4685C123.28 26.6777 123.332 26.8468 123.436 26.976C123.547 27.0991 123.701 27.1606 123.898 27.1606C124.125 27.1606 124.31 27.0868 124.451 26.9391C124.593 26.7915 124.664 26.61 124.664 26.3947V23.5344H126.5V28.4062H124.996Z" fill="white"/>
<path d="M130.209 23.4144C130.35 23.4144 130.477 23.4329 130.587 23.4698C130.698 23.5005 130.753 23.519 130.753 23.5251V25.066H130.163C129.781 25.066 129.505 25.1645 129.332 25.3613C129.166 25.5581 129.083 25.8503 129.083 26.2379V28.4062H127.247V23.5344H128.751L128.871 24.2725C128.982 23.9896 129.157 23.7773 129.397 23.6359C129.637 23.4882 129.908 23.4144 130.209 23.4144Z" fill="white"/>
<path d="M133.528 23.4236C134.18 23.4236 134.731 23.5528 135.18 23.8112C135.635 24.0634 135.863 24.4571 135.863 24.9922H134.156C134.156 24.8138 134.076 24.6877 133.916 24.6139C133.805 24.5524 133.667 24.5216 133.5 24.5216C133.058 24.5216 132.836 24.6262 132.836 24.8354C132.836 24.9522 132.913 25.0353 133.067 25.0845C133.221 25.1337 133.473 25.186 133.823 25.2414C134.254 25.3029 134.614 25.3767 134.903 25.4628C135.192 25.5428 135.444 25.6904 135.66 25.9057C135.875 26.1148 135.983 26.4101 135.983 26.7915C135.983 27.4128 135.749 27.8557 135.281 28.1202C134.82 28.3847 134.214 28.5169 133.464 28.5169C133.033 28.5169 132.627 28.4585 132.246 28.3416C131.864 28.2186 131.554 28.031 131.314 27.7788C131.074 27.5266 130.954 27.2067 130.954 26.8192H132.661V26.8561C132.667 27.0652 132.753 27.2129 132.919 27.299C133.091 27.3789 133.273 27.4189 133.464 27.4189C133.974 27.4189 134.229 27.299 134.229 27.0591C134.229 26.936 134.149 26.8468 133.99 26.7915C133.83 26.7361 133.568 26.6777 133.205 26.6162C132.768 26.5424 132.409 26.4624 132.126 26.3763C131.849 26.2902 131.606 26.1456 131.397 25.9426C131.188 25.7335 131.083 25.4443 131.083 25.0753C131.083 24.4786 131.308 24.0541 131.757 23.8019C132.212 23.5497 132.802 23.4236 133.528 23.4236Z" fill="white"/>
<path d="M47.7162 36.1027L47.4487 35.2077H45.225L44.9574 36.1027H42.8721L45.188 29.7545H47.5594L49.8754 36.1027H47.7162ZM45.6494 33.7867H47.0242L46.3599 31.5261H46.323L45.6494 33.7867Z" fill="white"/>
<path d="M52.4619 31.1201C53.1139 31.1201 53.6644 31.2493 54.1135 31.5076C54.5687 31.7598 54.7963 32.1535 54.7963 32.6887H53.0893C53.0893 32.5103 53.0093 32.3842 52.8494 32.3104C52.7387 32.2489 52.6003 32.2181 52.4342 32.2181C51.9913 32.2181 51.7698 32.3227 51.7698 32.5318C51.7698 32.6487 51.8467 32.7318 52.0005 32.781C52.1543 32.8302 52.4065 32.8825 52.7571 32.9378C53.1877 32.9993 53.5476 33.0732 53.8367 33.1593C54.1258 33.2392 54.378 33.3869 54.5933 33.6022C54.8086 33.8113 54.9162 34.1066 54.9162 34.488C54.9162 35.1092 54.6825 35.5521 54.215 35.8166C53.7536 36.0811 53.1477 36.2134 52.3973 36.2134C51.9667 36.2134 51.5607 36.155 51.1793 36.0381C50.7979 35.9151 50.4873 35.7274 50.2474 35.4752C50.0075 35.223 49.8875 34.9032 49.8875 34.5156H51.5945V34.5525C51.6007 34.7617 51.6868 34.9093 51.8529 34.9954C52.0251 35.0754 52.2066 35.1154 52.3973 35.1154C52.9078 35.1154 53.1631 34.9954 53.1631 34.7555C53.1631 34.6325 53.0831 34.5433 52.9232 34.488C52.7633 34.4326 52.5018 34.3742 52.1389 34.3126C51.7022 34.2388 51.3423 34.1589 51.0594 34.0727C50.7826 33.9866 50.5396 33.8421 50.3304 33.6391C50.1213 33.4299 50.0167 33.1408 50.0167 32.7717C50.0167 32.1751 50.2412 31.7506 50.6903 31.4984C51.1455 31.2462 51.736 31.1201 52.4619 31.1201Z" fill="white"/>
<path d="M57.7335 31.1201C58.3855 31.1201 58.9361 31.2493 59.3851 31.5076C59.8403 31.7598 60.0679 32.1535 60.0679 32.6887H58.3609C58.3609 32.5103 58.281 32.3842 58.121 32.3104C58.0103 32.2489 57.8719 32.2181 57.7058 32.2181C57.2629 32.2181 57.0415 32.3227 57.0415 32.5318C57.0415 32.6487 57.1184 32.7318 57.2722 32.781C57.4259 32.8302 57.6781 32.8825 58.0288 32.9378C58.4594 32.9993 58.8192 33.0732 59.1083 33.1593C59.3974 33.2392 59.6496 33.3869 59.8649 33.6022C60.0802 33.8113 60.1879 34.1066 60.1879 34.488C60.1879 35.1092 59.9541 35.5521 59.4866 35.8166C59.0253 36.0811 58.4194 36.2134 57.6689 36.2134C57.2383 36.2134 56.8323 36.155 56.451 36.0381C56.0696 35.9151 55.7589 35.7274 55.519 35.4752C55.2791 35.223 55.1592 34.9032 55.1592 34.5156H56.8662V34.5525C56.8723 34.7617 56.9584 34.9093 57.1245 34.9954C57.2968 35.0754 57.4782 35.1154 57.6689 35.1154C58.1795 35.1154 58.4348 34.9954 58.4348 34.7555C58.4348 34.6325 58.3548 34.5433 58.1949 34.488C58.0349 34.4326 57.7735 34.3742 57.4106 34.3126C56.9738 34.2388 56.614 34.1589 56.331 34.0727C56.0542 33.9866 55.8112 33.8421 55.6021 33.6391C55.3929 33.4299 55.2884 33.1408 55.2884 32.7717C55.2884 32.1751 55.5129 31.7506 55.9619 31.4984C56.4171 31.2462 57.0076 31.1201 57.7335 31.1201Z" fill="white"/>
<path d="M63.2081 31.1201C64.0632 31.1201 64.7337 31.3385 65.2196 31.7752C65.7117 32.2058 65.9578 32.8363 65.9578 33.6668C65.9578 34.4972 65.7117 35.1308 65.2196 35.5675C64.7337 35.9981 64.0632 36.2134 63.2081 36.2134C62.3531 36.2134 61.6826 35.9981 61.1967 35.5675C60.7107 35.1369 60.4677 34.5033 60.4677 33.6668C60.4677 32.8302 60.7107 32.1966 61.1967 31.766C61.6826 31.3354 62.3531 31.1201 63.2081 31.1201ZM63.2081 32.3657C62.6053 32.3657 62.3039 32.7133 62.3039 33.4084V33.9343C62.3039 34.6233 62.6053 34.9678 63.2081 34.9678C63.8171 34.9678 64.1216 34.6233 64.1216 33.9343V33.4084C64.1216 32.7133 63.8171 32.3657 63.2081 32.3657Z" fill="white"/>
<path d="M68.9934 31.1201C69.7931 31.1201 70.4389 31.2923 70.9311 31.6368C71.4293 31.9751 71.6784 32.4949 71.6784 33.1962H69.8976C69.8976 32.6426 69.5962 32.3657 68.9934 32.3657C68.3906 32.3657 68.0891 32.7133 68.0891 33.4084V33.9343C68.0891 34.6233 68.4029 34.9678 69.0303 34.9678C69.6577 34.9678 69.9714 34.6848 69.9714 34.1189H71.6784C71.6784 34.8263 71.4293 35.3522 70.9311 35.6967C70.4389 36.0412 69.7931 36.2134 68.9934 36.2134C68.1383 36.2134 67.4679 35.9981 66.9819 35.5675C66.4959 35.1369 66.253 34.5033 66.253 33.6668C66.253 32.8302 66.4959 32.1966 66.9819 31.766C67.4679 31.3354 68.1383 31.1201 68.9934 31.1201Z" fill="white"/>
<path d="M72.3243 30.6588V29.4131H74.1604V30.6588H72.3243ZM72.3243 36.1027V31.2308H74.1604V36.1027H72.3243Z" fill="white"/>
<path d="M77.3715 31.1201C78.1158 31.1201 78.7217 31.2462 79.1892 31.4984C79.6567 31.7445 79.8905 32.1474 79.8905 32.7071V34.6079C79.8905 34.7125 79.9151 34.7986 79.9643 34.8663C80.0135 34.9339 80.0873 34.9678 80.1857 34.9678H80.5179V36.0289C80.4994 36.0412 80.4502 36.0627 80.3703 36.0935C80.2964 36.1181 80.1888 36.1427 80.0473 36.1673C79.9058 36.198 79.7428 36.2134 79.5583 36.2134C79.2015 36.2134 78.9062 36.1611 78.6725 36.0565C78.4449 35.9458 78.288 35.7951 78.2019 35.6044C77.9682 35.789 77.7067 35.9366 77.4176 36.0473C77.1285 36.158 76.7902 36.2134 76.4027 36.2134C75.2585 36.2134 74.6864 35.7582 74.6864 34.8478C74.6864 34.3742 74.8125 34.0143 75.0647 33.7683C75.3231 33.516 75.6922 33.3438 76.172 33.2515C76.6518 33.1593 77.2792 33.1131 78.0543 33.1131V32.8732C78.0543 32.6825 77.9866 32.538 77.8513 32.4396C77.7221 32.3411 77.553 32.2919 77.3438 32.2919C77.1531 32.2919 76.987 32.3258 76.8456 32.3934C76.7102 32.4611 76.6426 32.5687 76.6426 32.7164V32.7533H74.8341C74.8279 32.7225 74.8248 32.6795 74.8248 32.6241C74.8248 32.1628 75.0432 31.7968 75.48 31.5261C75.9229 31.2554 76.5534 31.1201 77.3715 31.1201ZM78.0543 33.9805C77.5314 33.9805 77.1439 34.0389 76.8917 34.1558C76.6456 34.2665 76.5226 34.4172 76.5226 34.6079C76.5226 34.9155 76.7318 35.0693 77.15 35.0693C77.3899 35.0693 77.5991 35.0047 77.7775 34.8755C77.962 34.7463 78.0543 34.5864 78.0543 34.3957V33.9805Z" fill="white"/>
<path d="M83.8432 31.2308V32.4765H82.8098V34.3311C82.8098 34.5525 82.8467 34.7156 82.9205 34.8201C82.9943 34.9185 83.1297 34.9678 83.3265 34.9678H83.8432V36.0473C83.6956 36.0965 83.5049 36.1365 83.2711 36.1673C83.0374 36.198 82.8344 36.2134 82.6622 36.2134C82.1208 36.2134 81.7025 36.115 81.4073 35.9181C81.1182 35.7213 80.9736 35.386 80.9736 34.9124V32.4765H80.2908V31.2308H81.0474L81.4442 29.7545H82.8098V31.2308H83.8432Z" fill="white"/>
<path d="M84.3907 30.6588V29.4131H86.2269V30.6588H84.3907ZM84.3907 36.1027V31.2308H86.2269V36.1027H84.3907Z" fill="white"/>
<path d="M89.5487 31.1201C90.4037 31.1201 91.0742 31.3385 91.5601 31.7752C92.0522 32.2058 92.2983 32.8363 92.2983 33.6668C92.2983 34.4972 92.0522 35.1308 91.5601 35.5675C91.0742 35.9981 90.4037 36.2134 89.5487 36.2134C88.6936 36.2134 88.0231 35.9981 87.5372 35.5675C87.0512 35.1369 86.8082 34.5033 86.8082 33.6668C86.8082 32.8302 87.0512 32.1966 87.5372 31.766C88.0231 31.3354 88.6936 31.1201 89.5487 31.1201ZM89.5487 32.3657C88.9458 32.3657 88.6444 32.7133 88.6444 33.4084V33.9343C88.6444 34.6233 88.9458 34.9678 89.5487 34.9678C90.1576 34.9678 90.4621 34.6233 90.4621 33.9343V33.4084C90.4621 32.7133 90.1576 32.3657 89.5487 32.3657Z" fill="white"/>
<path d="M96.1736 31.1201C96.7395 31.1201 97.1639 31.277 97.4469 31.5907C97.7299 31.9044 97.8713 32.3565 97.8713 32.947V36.1027H96.0352V33.1685C96.0352 32.9594 95.9798 32.7933 95.8691 32.6702C95.7645 32.5411 95.6138 32.4765 95.417 32.4765C95.1894 32.4765 95.0048 32.5503 94.8633 32.6979C94.7219 32.8456 94.6511 33.027 94.6511 33.2423V36.1027H92.8149V31.2308H94.3189L94.4389 31.969C94.6296 31.7106 94.8787 31.5046 95.1863 31.3508C95.5 31.197 95.8291 31.1201 96.1736 31.1201Z" fill="white"/>
<path d="M103.823 31.1201C104.678 31.1201 105.348 31.3385 105.834 31.7752C106.326 32.2058 106.572 32.8363 106.572 33.6668C106.572 34.4972 106.326 35.1308 105.834 35.5675C105.348 35.9981 104.678 36.2134 103.823 36.2134C102.968 36.2134 102.297 35.9981 101.811 35.5675C101.325 35.1369 101.082 34.5033 101.082 33.6668C101.082 32.8302 101.325 32.1966 101.811 31.766C102.297 31.3354 102.968 31.1201 103.823 31.1201ZM103.823 32.3657C103.22 32.3657 102.918 32.7133 102.918 33.4084V33.9343C102.918 34.6233 103.22 34.9678 103.823 34.9678C104.432 34.9678 104.736 34.6233 104.736 33.9343V33.4084C104.736 32.7133 104.432 32.3657 103.823 32.3657Z" fill="white"/>
<path d="M109.073 29.3024C109.208 29.3024 109.377 29.3208 109.58 29.3578C109.783 29.3885 109.946 29.4254 110.069 29.4685V30.548H109.645C109.448 30.548 109.313 30.5849 109.239 30.6588C109.165 30.7326 109.128 30.8587 109.128 31.0371V31.2308H110.069V32.4765H109.128V36.1027H107.292V32.4765H106.609V31.2308H107.292V31.0278C107.292 30.4004 107.446 29.9575 107.753 29.6991C108.061 29.4346 108.501 29.3024 109.073 29.3024Z" fill="white"/>
<path d="M119.124 36.1027V33.8144C119.124 33.5314 119.133 33.2423 119.151 32.947C119.176 32.6456 119.201 32.3934 119.225 32.1904C119.25 31.9874 119.265 31.8583 119.271 31.8029H119.234L118.063 36.1027H116.466L115.285 31.8121H115.248C115.255 31.8675 115.27 31.9967 115.295 32.1997C115.325 32.3965 115.353 32.6456 115.378 32.947C115.402 33.2423 115.414 33.5314 115.414 33.8144V36.1027H113.541V29.7545H116.42L117.38 33.4176H117.417L118.367 29.7545H121.144V36.1027H119.124Z" fill="white"/>
<path d="M125.42 36.1027L125.3 35.3645C125.109 35.629 124.857 35.8382 124.543 35.992C124.236 36.1396 123.91 36.2134 123.565 36.2134C122.999 36.2134 122.575 36.0565 122.292 35.7428C122.009 35.4291 121.867 34.977 121.867 34.3865V31.2308H123.703V34.165C123.703 34.3742 123.756 34.5433 123.86 34.6725C123.971 34.7955 124.125 34.857 124.322 34.857C124.549 34.857 124.734 34.7832 124.875 34.6356C125.017 34.488 125.087 34.3065 125.087 34.0912V31.2308H126.924V36.1027H125.42Z" fill="white"/>
<path d="M134.139 31.1201C134.693 31.1201 135.108 31.28 135.385 31.5999C135.662 31.9136 135.8 32.3627 135.8 32.947V36.1027H133.964V33.1685C133.964 32.9594 133.911 32.7933 133.807 32.6702C133.708 32.5411 133.567 32.4765 133.382 32.4765C133.167 32.4765 132.992 32.5503 132.857 32.6979C132.721 32.8456 132.654 33.027 132.654 33.2423V36.1027H130.817V33.1685C130.817 32.9594 130.765 32.7933 130.661 32.6702C130.562 32.5411 130.421 32.4765 130.236 32.4765C130.021 32.4765 129.845 32.5503 129.71 32.6979C129.575 32.8456 129.507 33.027 129.507 33.2423V36.1027H127.671V31.2308H129.175L129.295 31.9598C129.479 31.7014 129.722 31.4984 130.024 31.3508C130.331 31.197 130.654 31.1201 130.993 31.1201C131.725 31.1201 132.217 31.4 132.469 31.9598C132.66 31.7014 132.903 31.4984 133.198 31.3508C133.499 31.197 133.813 31.1201 134.139 31.1201Z" fill="white"/>
<path d="M138.374 31.683C138.725 31.3077 139.18 31.1201 139.74 31.1201C140.398 31.1201 140.906 31.3354 141.262 31.766C141.619 32.1904 141.797 32.8209 141.797 33.6575C141.797 34.5003 141.619 35.1369 141.262 35.5675C140.906 35.9981 140.398 36.2134 139.74 36.2134C139.063 36.2134 138.547 35.9458 138.19 35.4107L138.033 36.1027H136.538V29.4131H138.374V31.683ZM139.168 32.4765C138.897 32.4765 138.694 32.5749 138.559 32.7717C138.423 32.9624 138.356 33.2116 138.356 33.5191V33.8236C138.356 34.1312 138.423 34.3803 138.559 34.571C138.694 34.7617 138.897 34.857 139.168 34.857C139.697 34.857 139.961 34.5433 139.961 33.9159V33.4269C139.961 32.7933 139.697 32.4765 139.168 32.4765Z" fill="white"/>
<path d="M144.722 31.1201C145.467 31.1201 146.073 31.2462 146.54 31.4984C147.008 31.7445 147.241 32.1474 147.241 32.7071V34.6079C147.241 34.7125 147.266 34.7986 147.315 34.8663C147.364 34.9339 147.438 34.9678 147.537 34.9678H147.869V36.0289C147.85 36.0412 147.801 36.0627 147.721 36.0935C147.647 36.1181 147.54 36.1427 147.398 36.1673C147.257 36.198 147.094 36.2134 146.909 36.2134C146.552 36.2134 146.257 36.1611 146.023 36.0565C145.796 35.9458 145.639 35.7951 145.553 35.6044C145.319 35.789 145.058 35.9366 144.769 36.0473C144.479 36.158 144.141 36.2134 143.754 36.2134C142.609 36.2134 142.037 35.7582 142.037 34.8478C142.037 34.3742 142.163 34.0143 142.416 33.7683C142.674 33.516 143.043 33.3438 143.523 33.2515C144.003 33.1593 144.63 33.1131 145.405 33.1131V32.8732C145.405 32.6825 145.338 32.538 145.202 32.4396C145.073 32.3411 144.904 32.2919 144.695 32.2919C144.504 32.2919 144.338 32.3258 144.196 32.3934C144.061 32.4611 143.993 32.5687 143.993 32.7164V32.7533H142.185C142.179 32.7225 142.176 32.6795 142.176 32.6241C142.176 32.1628 142.394 31.7968 142.831 31.5261C143.274 31.2554 143.904 31.1201 144.722 31.1201ZM145.405 33.9805C144.882 33.9805 144.495 34.0389 144.243 34.1558C143.997 34.2665 143.873 34.4172 143.873 34.6079C143.873 34.9155 144.083 35.0693 144.501 35.0693C144.741 35.0693 144.95 35.0047 145.128 34.8755C145.313 34.7463 145.405 34.5864 145.405 34.3957V33.9805Z" fill="white"/>
<path d="M148.164 30.6588V29.4131H150V30.6588H148.164ZM148.164 36.1027V31.2308H150V36.1027H148.164Z" fill="white"/>
<circle cx="18.454" cy="18.454" r="18.454" fill="#EDBF4F"/>
<circle cx="18.454" cy="18.454" r="18.454" fill="white"/>
<path d="M24.9914 29.131C23.741 29.131 22.7273 28.1173 22.7273 26.8669V23.5079C22.7273 22.8125 22.75 22.1021 22.7955 21.3765C22.856 20.6358 22.9166 20.0161 22.9771 19.5172C23.0305 19.0779 23.0662 18.7793 23.0843 18.6214C23.0877 18.5912 23.0641 18.5649 23.0338 18.5649C23.0132 18.5649 22.9947 18.5773 22.9868 18.5962L20.6965 24.0901C20.3448 24.9336 19.5206 25.483 18.6067 25.483H17.6898C16.7792 25.483 15.9572 24.9374 15.6035 24.0983L13.2936 18.6188C13.2856 18.5999 13.2671 18.5876 13.2466 18.5876C13.2162 18.5876 13.1925 18.6139 13.196 18.6441C13.2141 18.8021 13.2498 19.1007 13.3032 19.5399C13.3789 20.0236 13.447 20.6358 13.5075 21.3765C13.5681 22.1021 13.5984 22.8125 13.5984 23.5079V26.8669C13.5984 28.1173 12.5847 29.131 11.3343 29.131H11.2526C10.0021 29.131 8.98847 28.1173 8.98847 26.8669V15.7954C8.98847 14.545 10.0021 13.5313 11.2526 13.5313H14.3269C15.3561 13.5313 16.2557 14.2254 16.5169 15.2208L18.4238 22.489C18.4306 22.5148 18.454 22.5329 18.4807 22.5329C18.5075 22.5329 18.5309 22.5148 18.5376 22.4889L20.4248 15.226C20.6842 14.228 21.585 13.5313 22.6162 13.5313H25.4365C26.6869 13.5313 27.7006 14.545 27.7006 15.7954V26.8669C27.7006 28.1173 26.6869 29.131 25.4365 29.131H24.9914Z" fill="#10183D"/>
<circle cx="23.6752" cy="7.67221" r="3.50531" fill="#10183D"/>
<circle cx="12.2121" cy="8.72116" r="2.4523" fill="#10183D"/>
</svg>
