<svg width="123" height="114" viewBox="0 0 123 114" fill="none" xmlns="http://www.w3.org/2000/svg">
<circle cx="62" cy="56" r="50" fill="#212B57"/>
<path d="M53.5035 113.033C51.9721 113.033 50.7318 111.793 50.7318 110.262V39.9051L45.8511 44.7859C45.3303 45.3066 44.6273 45.5978 43.8912 45.5978C43.155 45.5978 42.452 45.3066 41.9313 44.7859L30.6834 33.5379C29.6016 32.4562 29.6016 30.6999 30.6834 29.6182L59.4802 0.821347C60.0009 0.300608 60.7134 0 61.4495 0C62.1857 0 62.9005 0.284039 63.4189 0.804778L92.2323 29.6158C92.753 30.1366 93.0442 30.8419 93.0442 31.5757C93.0442 32.3095 92.753 33.0172 92.2323 33.5356L80.9843 44.7835C80.4636 45.3043 79.7582 45.5954 79.0245 45.5954C78.2907 45.5954 77.5853 45.3043 77.0646 44.7835L72.1839 39.9028V110.262C72.1839 111.793 70.9436 113.033 69.4121 113.033H53.5035Z" fill="url(#paint0_linear_467_301)"/>
<path d="M93.7534 110.962C92.8776 110.962 92.1699 110.252 92.1699 109.379V75.9002L87.8738 80.1962C87.5779 80.4921 87.1731 80.6602 86.7542 80.6602C86.3352 80.6602 85.9305 80.4921 85.6346 80.1962L77.4448 72.0064C76.827 71.3887 76.827 70.3851 77.4448 69.7673L98.4116 48.8004C98.7241 48.488 99.1383 48.3294 99.5525 48.3294C99.9667 48.3294 100.355 48.4785 100.66 48.7815L121.646 69.7673C121.942 70.0631 122.11 70.4679 122.11 70.8869C122.11 71.3058 121.942 71.7106 121.646 72.0064L113.456 80.1962C113.16 80.4921 112.756 80.6602 112.337 80.6602C111.918 80.6602 111.513 80.4921 111.217 80.1962L106.921 75.9002V109.379C106.921 110.255 106.211 110.962 105.337 110.962H93.7557H93.7534Z" fill="url(#paint1_linear_467_301)"/>
<path d="M16.7743 110.962C15.8985 110.962 15.1908 110.252 15.1908 109.379V75.9002L10.8947 80.1962C10.5964 80.4921 10.1941 80.6602 9.77509 80.6602C9.35614 80.6602 8.95138 80.4921 8.65551 80.1962L0.463339 72.0064C-0.154446 71.3887 -0.154446 70.3851 0.463339 69.7673L21.4325 48.7981C21.745 48.4856 22.1592 48.3294 22.5711 48.3294C22.9829 48.3294 23.3758 48.4809 23.6812 48.7839L44.6646 69.7673C45.2824 70.3851 45.2824 71.3887 44.6646 72.0064L36.4748 80.1962C36.1766 80.4921 35.7742 80.6602 35.3552 80.6602C34.9362 80.6602 34.5315 80.4921 34.2356 80.1962L29.9395 75.9002V109.379C29.9395 110.255 29.2294 110.962 28.356 110.962H16.7743Z" fill="url(#paint2_linear_467_301)"/>
<defs>
<linearGradient id="paint0_linear_467_301" x1="61.4581" y1="0" x2="61.4581" y2="113.033" gradientUnits="userSpaceOnUse">
<stop stop-color="#895D1F"/>
<stop offset="0.494792" stop-color="#F6EDB2"/>
<stop offset="1" stop-color="#C88925"/>
</linearGradient>
<linearGradient id="paint1_linear_467_301" x1="99.5457" y1="48.3294" x2="99.5457" y2="110.962" gradientUnits="userSpaceOnUse">
<stop stop-color="#895D1F"/>
<stop offset="0.494792" stop-color="#F6EDB2"/>
<stop offset="1" stop-color="#C88925"/>
</linearGradient>
<linearGradient id="paint2_linear_467_301" x1="22.564" y1="48.3294" x2="22.564" y2="110.962" gradientUnits="userSpaceOnUse">
<stop stop-color="#895D1F"/>
<stop offset="0.494792" stop-color="#F6EDB2"/>
<stop offset="1" stop-color="#C88925"/>
</linearGradient>
</defs>
</svg>
