<svg width="14" height="12" viewBox="0 0 14 12" fill="none" xmlns="http://www.w3.org/2000/svg">
<path d="M4.40426 11.6874C9.68598 11.6874 12.5757 7.31052 12.5757 3.51602C12.5757 3.39298 12.5729 3.2672 12.5675 3.14415C13.1296 2.73762 13.6147 2.23409 14 1.6572C13.4765 1.89012 12.9206 2.04225 12.3514 2.10837C12.9507 1.74914 13.3995 1.1848 13.6145 0.51997C13.0507 0.854097 12.4341 1.0898 11.7912 1.21696C11.358 0.756683 10.7852 0.451923 10.1615 0.349802C9.53772 0.247681 8.89769 0.353885 8.34035 0.651995C7.783 0.950105 7.33938 1.42352 7.07808 1.99904C6.81677 2.57456 6.75233 3.22013 6.89473 3.83595C5.75312 3.77866 4.6363 3.4821 3.61666 2.9655C2.59702 2.44889 1.69732 1.72378 0.975898 0.837157C0.609233 1.46933 0.497033 2.2174 0.662101 2.92933C0.82717 3.64125 1.25712 4.26362 1.86457 4.66993C1.40853 4.65545 0.962486 4.53267 0.563281 4.31173V4.34727C0.562873 5.01069 0.792224 5.65378 1.21235 6.16722C1.63247 6.68066 2.21744 7.03277 2.86781 7.16368C2.44537 7.27926 2.00199 7.2961 1.57199 7.2129C1.75552 7.78344 2.11258 8.28246 2.59337 8.6403C3.07415 8.99814 3.65465 9.19695 4.25387 9.20899C3.23658 10.0081 1.97993 10.4415 0.686328 10.4395C0.456917 10.4391 0.227733 10.425 0 10.3974C1.31417 11.2405 2.84289 11.6882 4.40426 11.6874Z" fill="#10183C"/>
</svg>
